<svg xmlns="http://www.w3.org/2000/svg" width="536" height="446" preserveAspectRatio="xMidYMid meet" version="1.0" viewBox="0 0 536 446"><g fill="#171216"><path d="M425.8 282.5 c0.2 -2.5 0.8 -4.3 1.3 -4 0.4 0.3 0.7 -1.5 0.5 -4 -0.1 -2.6 -0.7 -5 -1.4 -5.3 -1.3 -0.9 -3.2 -8.9 -2.5 -10.8 0.4 -1.1 0.9 -1.1 2.6 -0.2 2.6 1.4 6.2 1.2 9.6 -0.5 3.5 -1.8 9.2 -14.6 8.7 -19.5 -0.8 -7.2 -1.6 -10.6 -2.5 -11.5 -0.7 -0.7 -0.7 -1.6 0 -2.9 0.5 -1 0.7 -1.8 0.3 -1.8 -0.3 0 -0.1 -0.7 0.6 -1.5 1.3 -1.6 1.1 -2.5 -2.2 -8.8 -0.5 -1.1 -0.7 -2.1 -0.4 -2.4 0.3 -0.3 5 -0.7 10.6 -0.8 10.6 -0.3 15.8 -2.1 14.6 -5.1 -0.4 -1 0.2 -1.4 1.8 -1.4 1.3 0 4 -0.7 6.1 -1.6 3.3 -1.4 4 -1.4 5.2 -0.1 1.3 1.3 1.2 2 -1.1 5.3 -1.4 2.1 -2.6 4.4 -2.6 5.1 0 0.8 -1.1 1 -3.5 0.6 -3.7 -0.6 -4.3 0.3 -2.5 3.7 0.7 1.3 0.6 1.9 -0.3 2.3 -0.9 0.3 -1.2 2 -1.1 4.7 0.1 2.5 -0.3 4.3 -1 4.6 -1.6 0.6 -1 8.4 0.9 11.4 0.5 0.8 1 2 1 2.5 0 0.6 0.8 0.9 1.8 0.9 1.2 -0.1 1.7 0.6 1.7 2.2 0 1.8 -0.9 2.8 -3.2 3.8 -10.6 4.6 -12.5 5.6 -13.7 7 -1 1.2 -1.7 1.3 -3.1 0.3 -1.5 -0.9 -2.6 -0.7 -5.7 0.9 -3 1.6 -3.9 2.6 -4.1 5.2 -0.2 2 -1 3.6 -2 3.9 -3.4 1.2 -7.2 4.5 -7.2 6.1 0 3 3.7 5.3 7.3 4.7 3.8 -0.7 6.3 1.4 7.3 6.2 l0.6 3 -10.1 1.1 c-5.6 0.7 -10.7 1.2 -11.4 1.2 -0.8 0 -1.1 -1.4 -0.9 -4.5z"/><path d="M57 250.3 c-2.5 -0.8 -5.2 -2.1 -6.1 -2.9 -0.8 -0.8 -2.3 -1.4 -3.2 -1.4 -0.9 0 -1.7 -0.4 -1.7 -1 0 -0.5 -0.5 -1 -1 -1 -1.5 0 -6.9 -6.3 -7 -8 0 -1.8 2.4 -8.7 3.3 -9.6 0.4 -0.4 0.7 -1.6 0.7 -2.7 0 -1.5 -0.5 -1.8 -2.5 -1.3 -1.4 0.4 -2.5 0.4 -2.5 0.1 0 -1.7 2.3 -4.5 3.6 -4.5 0.8 0 3.2 -1.9 5.4 -4.2 4.2 -4.6 6.4 -4.5 3.6 0.2 -0.9 1.7 -1.4 3.5 -1.1 4 0.3 0.6 3.1 1 6.2 1 5.7 0 10.7 1.2 15.3 3.6 2.7 1.4 4.3 7.4 2.8 10.6 -0.6 1.2 -0.1 2.2 1.8 3.7 l2.5 2 -4.3 2.2 c-2.4 1.2 -5.2 2.3 -6.3 2.4 -1.1 0.1 -2.4 0.3 -3 0.4 -0.5 0.1 0.5 1.3 2.4 2.8 3.1 2.5 3.2 2.7 1.5 4 -2.3 1.7 -4.8 1.6 -10.4 -0.4z"/><path d="M291.5 222.1 c0.3 -0.5 0.1 -1.2 -0.5 -1.6 -0.7 -0.4 -0.7 -1.2 0 -2.5 1.5 -2.9 1.2 -3.3 -1.9 -2.7 -2.4 0.5 -3.2 0.1 -4.7 -2 -1.2 -1.9 -1.3 -2.8 -0.6 -3.1 2.4 -0.8 1.2 -3.2 -1.5 -3.2 -1.9 0 -4 -1.2 -6.7 -4 -2.1 -2.2 -4.2 -4 -4.6 -4 -0.6 0 -3 -4.4 -3 -5.4 0 -0.2 0.9 -0.6 2 -0.9 1.1 -0.3 2 -1.4 2 -2.4 0 -1 0.6 -2.8 1.4 -3.9 0.8 -1.1 2.3 -4.1 3.2 -6.5 1 -2.4 2.2 -4.7 2.8 -5.1 2.3 -1.6 6.2 -0.6 11.3 2.9 5.1 3.5 11.8 5 14.8 3.4 1.7 -0.9 7 -0.9 7.5 0 0.3 0.4 1.8 0.2 3.4 -0.6 3.3 -1.7 5.6 -1.9 5.6 -0.5 0 0.6 1.1 0.8 2.5 0.4 1.5 -0.4 2.5 -0.2 2.5 0.5 0 0.6 -0.4 1.1 -1 1.1 -0.5 0 -1 0.7 -1 1.5 0 1.8 0.5 1.8 3.2 0.4 1.4 -0.8 2.3 -0.8 3.1 0 1.4 1.4 4.7 1.4 4.7 0.1 0 -0.5 0.8 -1 1.9 -1 2.6 0 11.3 -5 10.8 -6.3 -0.2 -0.6 -1.6 -1.4 -3.1 -1.8 -1.5 -0.4 -3.4 -1.3 -4.2 -2 -1.2 -1 -1 -1.5 1.8 -3.2 1.8 -1.1 4.4 -2.3 5.8 -2.7 1.4 -0.5 3.3 -1.1 4.3 -1.5 1.3 -0.6 3.1 0.6 7.2 5 3 3.1 5.5 5.4 5.5 5.1 0 -0.4 1 -0.1 2.3 0.6 2.1 1.2 2.7 1.4 5.4 1.7 2 0.2 5.3 7.1 5.3 11.2 0 2.1 0.4 3.9 0.8 3.9 0.5 0 1.9 0.8 3 1.9 2.1 1.8 1.8 1.8 -16.1 1.8 -10 0 -21.1 0.6 -24.7 1.2 -18.1 3.4 -32.4 10 -42.3 19.5 -3.1 3.1 -6.4 5.6 -7.3 5.6 -0.8 0 -1.3 -0.4 -0.9 -0.9z"/></g><g fill="#40080c"><path d="M292.5 320.9 c-2.9 -3.7 -3.1 -3.8 -9.7 -3.9 -6.5 0 -6.8 -0.1 -7.4 -2.7 -0.3 -1.6 -1.2 -4.8 -2 -7.2 -2 -6.2 -1.9 -13.5 0.1 -12.7 1.1 0.4 1.5 -0.2 1.5 -2.5 0 -2.6 -0.3 -2.9 -2.1 -2.4 -2.6 0.9 -3.9 -0.8 -3.9 -5.2 0 -1.8 -1.6 -9.1 -3.5 -16.3 -3.7 -13.7 -3.7 -14.7 0.4 -18.4 1.1 -1 3.2 -3.8 4.6 -6.1 2.5 -4.4 6.3 -7.5 9.1 -7.5 2.1 0 1.6 3.9 -2 17.4 -4.3 16.4 -4.4 27.4 -0.3 31.8 1.9 2.1 3.7 5.6 3.7 7.3 0 0.8 0.5 1.5 1 1.5 0.6 0 1 0.7 1 1.5 0 0.8 1.1 3.9 2.5 6.9 1.4 3 2.5 6.1 2.5 6.8 0 0.7 1.8 4.1 4.1 7.6 4.6 7.1 4.9 9.9 0.4 4.1z"/><path d="M283 224.1 c0 -4.9 -0.2 -5.3 -3.5 -7.2 -2 -1.2 -4 -3 -4.6 -4.1 -0.9 -1.7 -1.8 -2 -6.1 -1.6 -5.3 0.6 -12.6 -1.5 -14.1 -3.9 -0.4 -0.7 -2.7 -1.3 -5 -1.3 -2.3 0 -4.7 -0.4 -5.4 -0.8 -0.7 -0.5 -1.3 -4 -1.5 -9.1 -0.3 -7.7 -0.1 -8.4 2.1 -10.2 2 -1.7 2.1 -1.9 0.5 -1.9 -1.6 0 -1.7 -0.2 -0.4 -1 1.3 -0.9 1.3 -1.1 0 -1.9 -1.2 -0.8 -1.1 -1.1 0.5 -1.6 5.7 -1.9 15.2 -5.8 16.3 -6.7 0.8 -0.7 1.2 -0.7 1.2 0.2 0 0.9 1 1 3.4 0.6 2 -0.4 3.7 -0.2 4.1 0.4 0.3 0.5 2.2 1 4.1 1 4.2 0 4.2 0.8 0.4 8.4 -1.7 3.2 -3 6.5 -3 7.3 0 0.8 -0.9 1.7 -2 2 -1.1 0.3 -2 0.7 -2 0.9 0 1 2.4 5.4 3 5.4 0.4 0 2.5 1.8 4.6 4 2.7 2.8 4.8 4 6.7 4 2.7 0 3.9 2.4 1.5 3.2 -0.7 0.3 -0.6 1.2 0.6 3.1 1.5 2.1 2.3 2.5 4.7 2 3 -0.6 3.5 0.1 1.9 2.7 -0.5 0.9 -0.5 1.9 0.2 2.7 0.6 0.7 0.7 1.3 0.2 1.3 -0.5 0 -0.2 0.5 0.6 1 1.3 0.8 1.3 1.1 -0.1 2.5 -0.9 0.9 -2.7 1.7 -4 1.7 -1.3 0.1 -3 0.6 -3.6 1.1 -1 0.7 -1.3 -0.2 -1.3 -4.2z"/></g><g fill="#252727"><path d="M447.6 281.7 c-0.9 -4.7 -3.7 -7.1 -7.4 -6.2 -3.4 0.7 -7.2 -1.7 -7.2 -4.7 0 -1.6 3.8 -4.9 7.2 -6.1 1 -0.3 1.8 -1.9 2 -3.9 0.2 -2.6 1.1 -3.6 4.1 -5.2 3.1 -1.6 4.2 -1.8 5.7 -0.9 1.4 1 2.1 0.9 3.1 -0.3 1.2 -1.4 3.1 -2.4 13.7 -7 2.3 -1 3.2 -2 3.2 -3.8 0 -1.3 -0.6 -2.3 -1.2 -2.2 -0.7 0 -1.5 -0.3 -1.6 -0.9 -0.2 -0.5 -0.9 -1.6 -1.5 -2.4 -1.2 -1.4 -1.5 -2.7 -2 -7.8 -0.2 -1.9 0.2 -3.4 0.9 -3.7 0.7 -0.3 1.1 -2.1 1 -4.6 -0.1 -2.7 0.2 -4.4 1.1 -4.7 0.9 -0.4 1 -1 0.3 -2.3 -1.8 -3.4 -1.2 -4.3 2.5 -3.7 2.4 0.4 3.5 0.2 3.5 -0.6 0 -0.7 1.2 -3 2.6 -5.1 2.3 -3.3 2.4 -4 1.1 -5.3 -1.2 -1.3 -1.9 -1.3 -5.2 0.1 -2.1 0.9 -4.7 1.6 -5.9 1.6 -2.1 -0.1 -2.1 -0.1 0.3 -2 1.3 -1.1 3.1 -2 4.1 -2 0.9 0 2.2 -1.1 2.8 -2.5 0.7 -1.4 2 -2.5 3.1 -2.5 1.1 0 3.3 -1.1 4.9 -2.5 1.7 -1.4 4 -2.5 5.2 -2.5 1.1 0 4.2 -2 6.8 -4.4 4.2 -4 4.5 -4.6 3.1 -5.8 -0.9 -0.7 -2 -3 -2.4 -5.2 -0.5 -3.2 -0.3 -4.1 1.5 -5.3 1.1 -0.8 1.8 -1.9 1.5 -2.4 -0.9 -1.4 4.5 -0.9 10.2 0.9 5.7 1.9 8.2 4.5 11.4 11.8 1.8 4.1 2.2 7.3 2.6 19 0.3 13.6 0.3 14.2 -1.7 14.7 -1.1 0.3 -2 1.2 -2 2.1 0 2 -2.9 6.6 -4.1 6.6 -0.5 0 -0.9 -1.3 -0.9 -2.8 0 -3.1 -4.5 -8.3 -5.2 -6.1 -0.3 0.9 -1.2 0.8 -3.8 -0.4 -4.6 -2 -12.6 -2.8 -14.4 -1.3 -1.7 1.4 -2.7 5.4 -1.4 6.2 0.5 0.3 0.2 1.4 -0.8 2.5 -1.4 1.6 -1.5 1.9 -0.2 1.9 0.8 0 2.3 -0.9 3.3 -2 2 -2.2 3.5 -2.6 3.5 -0.9 0 1.3 -2.5 3.9 -3.8 3.9 -0.6 0 -1.2 0.6 -1.5 1.3 -0.4 1 -0.7 1 -1.8 0 -1.9 -1.8 -2.4 -1.6 -3.7 1.2 -0.7 1.4 -2.2 3 -3.4 3.5 -1.7 0.6 -1.9 0.9 -0.6 0.9 1.4 0.1 1.6 0.7 1.1 3.2 -0.3 1.8 -0.1 3.4 0.5 3.8 0.5 0.3 1.3 3.2 1.7 6.4 0.6 4.8 0.5 5.6 -0.7 5.2 -1.8 -0.7 -6.8 1.1 -6.8 2.4 0 0.5 0.9 1.2 2 1.6 1.7 0.5 1.8 1.3 1.4 5.6 -0.5 4.6 -0.4 5 1.3 4.5 1 -0.3 2.5 -0.1 3.3 0.4 0.8 0.5 1.2 1 0.7 1 -1.3 0 2.5 5 3.8 5 0.7 0 1.8 0.7 2.5 1.4 0.9 1.2 0.3 1.9 -3.9 4.1 -2.8 1.4 -7.4 3.4 -10.3 4.6 -2.9 1.1 -6 2.6 -6.8 3.3 -0.8 0.7 -5.3 1.8 -10 2.5 -4.7 0.7 -9.2 1.4 -10.1 1.7 -1.2 0.3 -1.8 -0.4 -2.3 -2.9z"/><path d="M325 183.5 c0 -0.8 0.5 -1.5 1 -1.5 0.6 0 1 -0.5 1 -1.1 0 -0.7 -1 -0.9 -2.5 -0.5 -1.4 0.4 -2.5 0.2 -2.5 -0.4 0 -1.4 -2.3 -1.2 -5.6 0.5 -1.6 0.8 -3.1 1 -3.4 0.6 -0.5 -0.9 -5.8 -0.9 -7.5 0 -3 1.7 -9.7 0.1 -15 -3.5 -5 -3.5 -5.9 -3.8 -10.2 -3.2 -4.8 0.6 -4.8 0.6 -1.7 -0.8 1.8 -0.8 3.5 -1.9 3.8 -2.5 0.4 -0.6 1.6 -1.1 2.8 -1.1 1.1 0 3.4 -1.1 5 -2.5 2.3 -1.9 4 -2.5 7.1 -2.3 2.3 0.1 5.1 -0.2 6.1 -0.7 1.6 -0.7 1.8 -0.5 1.3 0.8 -0.5 1.3 -0.1 1.7 1.5 1.7 l2.1 0 -2.2 2.4 -2.2 2.3 2.8 0.6 c1.5 0.3 4.1 0.3 5.7 0 2.6 -0.6 2.9 -0.4 2.4 1.5 -0.4 1.2 -0.5 2.2 -0.4 2.2 0.1 0 2.4 -1.1 5.2 -2.4 5.4 -2.6 8 -2.3 4.4 0.6 -3.2 2.6 -1.8 3.4 2.7 1.6 13.3 -5.5 12.1 -5.3 14.2 -3.4 1 0.9 3.1 2.1 4.7 2.5 1.5 0.4 2.9 1.2 3.1 1.8 0.5 1.3 -8.2 6.3 -10.8 6.3 -1.1 0 -1.9 0.5 -1.9 1 0 1.3 -3.3 1.3 -4.7 -0.1 -0.8 -0.8 -1.7 -0.8 -3.1 0 -2.7 1.4 -3.2 1.4 -3.2 -0.4z"/></g><g fill="#750e0c"><path d="M425.1 282.5 c-0.5 -6.2 -0.9 -9.2 -2.1 -15.1 -0.6 -3 -1.3 -9.1 -1.4 -13.7 -0.4 -9.8 -1.5 -14.8 -5.6 -24.6 -2.8 -6.8 -4 -12.1 -2.2 -9.5 0.4 0.5 2.5 1 4.7 0.9 2.6 -0.1 4.4 0.4 5.2 1.4 0.6 0.9 1.5 1.3 1.9 0.9 1.1 -1.1 -1.6 -3.8 -3.8 -3.8 -1.4 0 -1.9 -0.6 -1.6 -2.2 0.2 -1.6 1.7 -2.8 5.5 -4.3 2.8 -1.1 6 -2.8 7 -3.8 1.2 -1.1 3.6 -1.7 6.3 -1.7 3.9 0 4.2 0.2 2.6 1.3 -1.4 1 -1.6 1.8 -0.8 3.3 3.3 6.3 3.5 7.3 2.2 8.9 -0.7 0.8 -0.9 1.5 -0.6 1.5 0.4 0 0.2 0.8 -0.3 1.8 -0.7 1.3 -0.7 2.2 0 2.9 0.9 0.9 1.7 4.3 2.5 11.5 0.5 4.9 -5.2 17.7 -8.7 19.5 -3.4 1.7 -7 1.9 -9.6 0.5 -1.7 -0.9 -2.2 -0.9 -2.6 0.2 -0.7 1.9 1.2 9.9 2.5 10.8 0.7 0.3 1.3 2.7 1.4 5.3 0.2 2.5 -0.1 4.3 -0.6 4 -0.5 -0.3 -1.1 1.4 -1.3 3.7 l-0.4 4.3 -0.2 -4z"/><path d="M259.9 250.8 c-0.7 -1.8 -1.4 -3.6 -1.7 -4 -0.2 -0.5 0.8 -1.2 2.2 -1.8 1.4 -0.5 2.6 -1.5 2.6 -2.1 0 -0.6 0.9 -2.4 2 -3.9 1.6 -2.3 2 -4 1.7 -8.1 -0.2 -2.9 0.1 -6.5 0.7 -8.1 0.9 -2.3 0.8 -3.1 -0.4 -3.8 -0.8 -0.5 -1 -1 -0.5 -1 0.6 0 0.3 -0.4 -0.5 -1 -0.9 -0.5 -1.9 -0.5 -2.7 0.1 -1.2 1.1 -3.3 0.4 -3.3 -0.9 0 -0.4 1.5 -1.7 3.3 -2.9 4.2 -2.9 10.2 -3.1 11.6 -0.4 0.6 1 2.6 2.8 4.6 4 3.3 1.9 3.5 2.3 3.5 7.2 0 3.9 0.3 4.9 1.3 4.2 0.6 -0.5 2.5 -1 4.1 -1.1 l3 -0.2 -2.1 2.2 c-1.2 1.3 -3.5 4.5 -5.2 7.2 -2.8 4.5 -3.1 4.7 -3.1 2.3 0 -5 -6.3 -2.4 -10.3 4.3 -2.2 3.7 -8.2 11 -9.1 11 -0.2 0 -1 -1.5 -1.7 -3.2z"/><path d="M172.5 181 c-3.8 -2.1 -10.9 -5.2 -15.7 -6.7 -9.1 -2.9 -11 -4.3 -5.8 -4.3 2 0 3 -0.5 3 -1.5 0 -0.8 0.7 -1.5 1.5 -1.5 0.8 0 1.5 -0.7 1.5 -1.6 0 -0.9 1.1 -2.5 2.5 -3.6 2.5 -1.9 3.4 -5.8 1.4 -5.8 -0.6 0 -0.9 -1.2 -0.7 -2.7 0.2 -2.3 1 -2.9 4.3 -3.6 4.1 -0.9 14.6 -0.4 17.9 0.9 1.7 0.6 1.7 0.8 -0.5 2 l-2.4 1.3 2.6 0.1 c1.4 0 2.9 0.4 3.5 0.9 0.5 0.5 4.1 1.2 7.9 1.4 8.8 0.7 14.7 1.7 14.3 2.6 -0.6 1.4 -26.6 26.1 -27.4 26.1 -0.5 0 -4 -1.8 -7.9 -4z"/></g><g fill="#97140c"><path d="M337.5 343.9 c-3.3 -0.4 -8.7 -1.5 -12 -2.4 -3.3 -0.9 -7.6 -2.1 -9.5 -2.5 -1.8 -0.5 -4.1 -1.8 -5 -2.8 -0.8 -1.1 -2.6 -2.2 -4 -2.5 -1.4 -0.4 -4 -2 -5.8 -3.6 -1.8 -1.7 -3.6 -2.9 -3.9 -2.8 -0.4 0.1 -1 -1.1 -1.4 -2.8 -0.3 -1.6 -2.2 -5.5 -4.3 -8.5 -2 -3 -3.6 -6.1 -3.6 -6.8 0 -0.7 -1.1 -3.8 -2.5 -6.8 -1.4 -3 -2.5 -6.1 -2.5 -6.9 0 -0.8 -0.4 -1.5 -1 -1.5 -0.5 0 -1 -0.7 -1 -1.5 0 -1.7 -1.8 -5.2 -3.7 -7.3 -3.6 -3.9 -4 -17.1 -0.8 -27.2 l1.4 -4.5 0 3.8 c0.1 4.1 1.4 4.8 3.1 1.7 0.6 -1.1 1.6 -2 2.3 -2 1.9 0 4.4 6.7 5.2 14 1.6 13.8 8.2 31.2 14.6 38.5 0.9 1.1 2.9 4.3 4.4 7 3.7 6.7 10.9 15.1 15.6 18.1 3.8 2.3 6.4 2.9 16.9 3.9 3 0.3 11.6 1.1 19.1 1.9 7.5 0.7 15 1.1 16.5 0.9 2.4 -0.5 2.7 -0.3 1.6 0.8 -1 1 -4.4 1.4 -13.1 1.4 -6.6 0 -11.7 0.3 -11.4 0.8 0.5 0.9 -7.2 0.7 -15.2 -0.4z"/><path d="M263.2 335.3 c-0.6 -0.9 -0.4 -3.9 0.3 -7.4 0.7 -3.2 1 -6.1 0.7 -6.4 -0.3 -0.3 -0.9 -4.3 -1.3 -8.8 -1.2 -12.8 -1.9 -15.7 -5 -20.2 -5.4 -7.9 -2.4 -9.2 4.1 -1.7 l4.2 4.7 -0.5 -5.2 c-0.6 -4.9 0.9 -11.3 2.5 -11.3 0.4 0 0.8 1.9 0.8 4.3 0 5.4 1.1 7.1 3.9 6.2 1.8 -0.5 2.1 -0.2 2.1 2.4 0 2.3 -0.4 2.9 -1.5 2.5 -2.1 -0.8 -2 6.9 0.1 12.7 2.1 5.6 2.1 22.7 0 26.8 -1.2 2.2 -2.2 2.7 -5.5 2.8 -2.8 0.1 -4.3 -0.3 -4.9 -1.4z"/><path d="M259.7 214.3 c-0.4 -0.3 -2.5 -0.6 -4.7 -0.5 -2.2 0.1 -4 -0.3 -4 -0.8 0 -0.6 -0.7 -1 -1.5 -1 -0.8 0 -1.5 -0.7 -1.5 -1.5 0 -1.9 0.5 -2 -7.6 1.1 -6.4 2.4 -7.1 2.5 -9.9 1.1 -1.6 -0.9 -4.3 -1.8 -5.8 -2.1 -3.2 -0.7 -5.4 -5 -3.7 -7.1 0.7 -0.8 0.7 -2.1 0.1 -3.8 -0.8 -2.1 -0.5 -3 2.1 -5.8 1.6 -1.9 3.5 -4.6 4 -6.1 0.5 -1.5 2.5 -3.6 4.4 -4.7 5.1 -3 18.1 -3.1 13.4 -0.1 -1.2 0.8 -1.2 1 0.4 1 1.6 0 1.5 0.2 -0.5 1.9 -2.2 1.8 -2.4 2.5 -2.1 10.2 0.2 5.1 0.8 8.6 1.5 9.1 0.7 0.4 3.1 0.8 5.5 0.8 2.9 0 4.5 0.5 4.8 1.5 0.4 0.8 1 1.5 1.5 1.5 0.5 0 2.6 0.7 4.6 1.5 3 1.3 3.3 1.7 2.3 3 -1.4 1.6 -2.3 1.9 -3.3 0.8z"/></g><g fill="#7d211c"><path d="M85.5 290 c-10.5 -0.7 -15.8 -1.8 -15.1 -2.9 0.2 -0.3 -1.1 -0.7 -2.9 -0.8 -2.5 -0.1 -12.3 -4.1 -14.3 -5.8 -0.9 -0.8 1.4 -3.5 3.1 -3.5 2 0 2 0 -0.2 -2.4 -2.3 -2.4 -2.3 -2.4 -0.3 -3.5 1.2 -0.6 2.8 -1.1 3.6 -1.1 0.9 0 1.6 -0.4 1.6 -0.8 0 -0.5 1.7 -1.8 3.9 -3 3.3 -1.9 4 -2 5 -0.8 0.7 0.8 0.8 1.7 0.3 2 -0.5 0.3 -0.7 1.8 -0.4 3.3 0.3 2.3 1.6 3.4 6.4 5.8 3.4 1.6 8 3 10.6 3.2 2.6 0.1 7.6 1 11.2 1.8 3.6 0.9 10.1 1.9 14.5 2.3 7.1 0.6 8 0.9 8.3 2.8 0.3 1.8 -0.3 2.2 -4.5 2.7 -9.3 1.2 -20.9 1.5 -30.8 0.7z m16.8 -0.7 c-1.3 -0.2 -3.3 -0.2 -4.5 0 -1.3 0.2 -0.3 0.4 2.2 0.4 2.5 0 3.5 -0.2 2.3 -0.4z m-14 -1 c-1.8 -0.2 -4.8 -0.2 -6.5 0 -1.8 0.2 -0.4 0.4 3.2 0.4 3.6 0 5 -0.2 3.3 -0.4z m25.5 0 c-1 -0.2 -2.6 -0.2 -3.5 0 -1 0.3 -0.2 0.5 1.7 0.5 1.9 0 2.7 -0.2 1.8 -0.5z"/><path d="M71.5 256.7 c-1.2 -1.2 -3 -2.7 -4 -3.4 -2 -1.1 -2 -1.1 -0.1 -2.5 1.8 -1.4 1.7 -1.6 -1.5 -4.1 -1.9 -1.5 -2.9 -2.7 -2.4 -2.8 0.6 -0.1 1.9 -0.3 3 -0.4 1.1 -0.1 3.9 -1.2 6.3 -2.4 l4.3 -2.2 -2.5 -2 c-1.5 -1.1 -2.3 -2.6 -1.9 -3.2 0.3 -0.6 0.6 -3.1 0.4 -5.5 -0.1 -3.2 0.1 -4.2 1 -3.6 0.6 0.4 3.3 0.8 5.8 1 8.1 0.6 13 1.5 13.6 2.5 0.4 0.5 1.4 0.9 2.3 0.9 2.1 0 5 4 3 4 -0.8 0.1 -0.6 0.6 0.4 1.4 1.2 0.8 1.8 2.7 1.8 5.1 0 3.2 0.3 3.7 1.9 3.2 1.3 -0.3 2.1 0.1 2.4 1.5 1 3.5 -0.3 4.8 -4.7 4.9 -5.8 0.1 -6.8 0.4 -11.4 3.3 -2.3 1.4 -4.7 2.6 -5.4 2.6 -0.6 0 -1.9 0.6 -2.7 1.4 -0.9 0.8 -2.9 1.7 -4.6 2 -2.3 0.5 -3.5 0.1 -5 -1.7z"/></g><g fill="#47453e"><path d="M185.5 351.2 c-0.6 -0.6 -4.7 -1.2 -8.2 -1.2 -1.2 0 -2.5 -0.5 -2.8 -1 -0.3 -0.6 -1.5 -1 -2.6 -1 -1 0 -1.9 -0.6 -1.9 -1.4 0 -1.5 -5.7 -4.9 -7 -4.1 -0.4 0.2 -2.5 -1.6 -4.6 -4.2 -2.1 -2.5 -4.6 -5.3 -5.5 -6.3 -0.8 -0.9 -1.9 -2.4 -2.2 -3.4 -0.4 -0.9 -1.2 -1.4 -1.7 -1.1 -1.4 0.9 -0.9 -7.7 0.5 -8.8 0.6 -0.4 0.4 -1.2 -0.7 -2.1 -1 -0.7 -1.8 -2.8 -1.9 -4.7 -0.2 -1.9 -0.7 -4 -1.2 -4.7 -0.7 -0.8 -0.4 -2.5 0.8 -5.1 0.9 -2.2 1.4 -4.4 1 -5.1 -0.4 -0.6 0.2 -2 1.4 -3.2 1.4 -1.3 2 -2.6 1.6 -3.9 -0.5 -1.4 -0.3 -1.7 0.9 -1.3 1.5 0.6 2 -0.5 1.7 -3.3 -0.1 -0.7 0.6 -1.3 1.5 -1.3 0.9 0 3.6 -2.2 6 -4.9 5 -5.6 12.1 -10.1 15.8 -10.1 1.4 0 2.8 -0.5 3.1 -1.1 0.4 -0.6 1.4 -0.7 2.4 -0.4 0.9 0.4 4.4 0.9 7.8 1 3.4 0.2 7.5 1.1 9.2 1.9 1.6 0.9 3.9 1.6 5.1 1.6 1.2 0 1.8 0.4 1.5 1.1 -0.8 1.1 1.7 3.4 5.3 4.9 1.2 0.5 2.2 1.6 2.2 2.4 0 0.7 0.7 1.6 1.5 2 0.8 0.3 1.5 1.3 1.5 2.2 0 0.9 1 3 2.3 4.7 2 3 2.2 4.2 2.1 16.9 -0.1 9.3 -0.5 14.3 -1.4 15.3 -0.7 0.8 -0.9 2.2 -0.6 3.1 0.4 0.9 -0.1 2.8 -0.9 4.1 -0.9 1.3 -1.3 2.8 -1 3.3 0.8 1.2 -7.6 9.5 -9.2 9.1 -0.7 -0.1 -1.3 0.2 -1.3 0.7 0 0.4 -1.8 1.8 -4 3.1 -2.2 1.2 -4 2.6 -4 3.1 0 0.5 -0.7 0.7 -1.5 0.3 -0.9 -0.3 -2.1 0.1 -2.8 1 -1.2 1.5 -7.2 2.8 -8.2 1.9z m7.8 -12.6 c8.4 -2.4 13.5 -6.2 17.2 -12.6 1.1 -1.8 2.7 -4.5 3.5 -5.9 1.1 -1.9 1.4 -5.1 1.2 -11.8 -0.1 -5.7 0.2 -9.3 0.8 -9.3 0.6 0 1 -0.4 1 -1 0 -0.5 -0.6 -1 -1.4 -1 -0.8 0 -2.9 -2.5 -4.6 -5.4 -5.5 -9.7 -13.8 -14.8 -22.9 -14.2 -10.4 0.8 -25.3 10.8 -29.1 19.6 -1 2.4 -1.5 7.2 -1.5 15.5 0 11.2 0.2 12.2 2.5 15.5 3.7 5.1 12.9 11.8 14.2 10.4 0.3 -0.2 1.1 0.2 1.8 1.1 1.8 2.1 8.1 1.8 17.3 -0.9z"/><path d="M353.6 306.2 c-1.5 -0.2 -4.2 -1.2 -6 -2.3 -1.7 -1 -4 -1.9 -5.1 -1.9 -1.1 0 -3.4 -1.4 -5.2 -3 -1.8 -1.7 -3.7 -3 -4.2 -3 -0.6 0 -1.1 -0.4 -1.1 -1 0 -0.5 -1.1 -1 -2.5 -1 -1.8 0 -2.5 -0.5 -2.5 -1.9 0 -1.1 -1.3 -3 -2.8 -4.3 -3.9 -3.3 -4.5 -4.5 -3.1 -6.9 0.8 -1.6 0.8 -2.3 -0.1 -2.9 -0.7 -0.4 -1.3 -1.9 -1.3 -3.4 -0.1 -1.4 -0.8 -2.6 -1.4 -2.6 -0.7 0 -1.3 -0.7 -1.3 -1.5 0 -0.8 0.4 -1.5 1 -1.5 1.7 0 2.3 -4.9 0.9 -6.7 -1.1 -1.3 -1.1 -1.7 -0.1 -2 0.6 -0.3 1.2 -1.8 1.2 -3.3 0 -1.6 0.5 -3.2 1 -3.5 1.6 -1 1.2 -2.5 -0.5 -1.9 -2.9 1.1 -1.5 -1.5 1.9 -3.6 1.9 -1.1 3.8 -3.1 4.2 -4.3 1.2 -3.7 5.3 -8.4 8.9 -10.2 1.9 -0.8 3.9 -2.4 4.5 -3.4 0.5 -1 2.6 -2.2 4.7 -2.6 2.7 -0.5 3.3 -0.9 2.2 -1.6 -0.9 -0.6 1.4 -0.9 6.6 -1 5.4 0 7.4 -0.3 6 -0.9 -1.8 -0.8 -1.8 -0.9 -0.2 -0.9 1 -0.1 2.5 0.6 3.3 1.4 1.7 1.7 4.4 2 4.4 0.5 0 -0.5 0.5 -1 1 -1 0.6 0 1 0.6 1 1.4 0 1.8 5.6 6.6 7.8 6.6 3.7 0.1 11.1 15.6 13.2 27.8 1.1 6.6 0.5 16.8 -1.1 17.8 -0.5 0.3 -0.9 1.4 -0.9 2.5 0 1 -0.7 1.9 -1.5 1.9 -0.8 0 -1.5 0.9 -1.5 2 0 5.7 -12.5 19.1 -20 21.5 -3 1 -7.4 1.2 -11.4 0.7z m10.2 -11.9 c5.9 -2.2 13.4 -11.2 16.1 -19.5 1.9 -5.9 2 -6.9 0.8 -14.9 -1.8 -11.8 -4.8 -16.7 -12.4 -20.5 -3.2 -1.6 -6.1 -3.2 -6.4 -3.7 -0.6 -0.8 -8.2 -2.1 -12.1 -2.1 -1.4 0.1 -4.4 1.1 -6.7 2.2 -9.3 4.9 -11.6 6.9 -14.6 12.8 -2.7 5.3 -3 6.8 -3 15.4 0 8.5 0.3 10.1 2.9 15.5 7.3 14.9 20.3 20.3 35.4 14.8z"/><path d="M492 269.2 c0 -0.6 -1.1 -1.4 -2.4 -1.8 -2.3 -0.5 -6.6 -5.4 -4.9 -5.4 0.5 0 0.1 -0.5 -0.7 -1 -0.8 -0.5 -2.3 -0.7 -3.3 -0.4 -1.7 0.5 -1.8 0.1 -1.3 -4.5 0.4 -4.3 0.3 -5.1 -1.4 -5.6 -1.1 -0.4 -2 -1.1 -2 -1.6 0 -1.3 5 -3.1 6.8 -2.4 1.2 0.4 1.3 -0.4 0.7 -5.2 -0.4 -3.2 -1.2 -6.1 -1.7 -6.4 -0.6 -0.4 -0.8 -2 -0.5 -3.8 0.5 -2.5 0.3 -3.1 -1.1 -3.2 -1.3 0 -1.1 -0.3 0.6 -0.9 1.2 -0.5 2.7 -2.1 3.4 -3.5 1.3 -2.8 1.8 -3 3.7 -1.2 1.1 1 1.4 1 1.8 0 0.3 -0.7 0.9 -1.3 1.5 -1.3 1.3 0 3.8 -2.6 3.8 -3.9 0 -1.7 -1.5 -1.3 -3.5 0.9 -1 1.1 -2.5 2 -3.3 2 -1.3 0 -1.2 -0.3 0.2 -1.9 1 -1.1 1.3 -2.2 0.8 -2.5 -1.3 -0.8 -0.3 -4.8 1.4 -6.2 1.8 -1.5 9.8 -0.7 14.4 1.3 2.6 1.2 3.5 1.3 3.8 0.4 0.7 -2.2 5.2 3 5.2 6.1 0 1.5 0.4 2.8 0.9 2.8 1.2 0 4.1 -4.6 4.1 -6.6 0 -0.9 0.8 -1.8 1.9 -2.1 1.4 -0.4 1.9 -1.4 1.9 -4.5 0.1 -2.2 0.3 -4.3 0.6 -4.6 0.3 -0.3 0.6 2.7 0.6 6.7 0 8.2 -2.8 19.8 -6.9 28.6 -2.8 6.1 -12.6 17.9 -14.1 17 -0.5 -0.3 -1.2 0 -1.6 0.6 -0.4 0.8 -0.3 0.9 0.4 0.5 0.7 -0.4 1.2 -0.3 1.2 0.2 0 1 -1.9 2.8 -3.5 3.4 -0.5 0.1 -1 0.9 -1.1 1.6 -0.4 2.1 -2.5 4.2 -3.7 3.5 -0.6 -0.3 -0.7 -0.1 -0.3 0.5 0.4 0.7 0 2.2 -0.8 3.4 -0.9 1.2 -1.6 1.7 -1.6 1z"/><path d="M376.6 181.3 c-0.9 -1.8 -2.2 -3.4 -2.9 -3.4 -2.7 -0.3 -3.3 -0.5 -5.4 -1.7 -1.3 -0.7 -2.3 -1 -2.3 -0.6 0 0.3 -2.4 -1.9 -5.4 -5 -2.9 -3.1 -5.8 -5.6 -6.5 -5.6 -0.6 0 -1.1 -1.1 -1.1 -2.4 0 -2.2 -2.3 -4.1 -3.9 -3.2 -1.3 0.8 -3 -3 -2 -4.5 0.6 -1 0.9 -1 0.9 -0.1 0 0.6 0.5 1.2 1 1.2 0.6 0 1 -0.9 1 -2 0 -1.1 -0.4 -2 -1 -2 -0.6 0 -0.6 -0.9 0 -2.5 0.7 -1.9 0.6 -2.5 -0.4 -2.5 -1.7 0 -2.8 -2.4 -2 -4.4 0.3 -0.8 0.1 -1.7 -0.5 -2.1 -1.7 -1 -1.3 -2.2 0.8 -2.8 2.7 -0.7 4.5 0.8 6.6 5.3 1 2.2 2.2 4 2.7 4 0.4 0 0.8 0.7 0.8 1.5 0 1.3 1 3.7 2.8 6.4 0.1 0.3 1.6 0.6 3.2 0.7 1.7 0.1 2.8 -0.1 2.6 -0.5 -0.2 -0.3 0.6 -1.9 1.8 -3.4 2.1 -2.6 2.7 -2.8 6.8 -2.2 2.9 0.4 4.9 1.4 5.8 2.8 1.2 1.9 0.9 2.4 -2.6 5.4 -2.1 1.9 -4.6 4.5 -5.5 5.9 -1.7 2.6 -1.6 2.7 1.6 7 3.5 4.5 6 10.5 5.2 12.7 -0.2 0.6 -1.1 -0.3 -2.1 -2z"/></g><g fill="#723c3b"><path d="M144.2 170.2 c-0.9 -0.6 -0.6 -1.2 1.3 -2 1.5 -0.7 2.5 -2 2.5 -3.2 0 -1.2 0.4 -3 1 -4 0.7 -1.3 0.6 -2.1 -0.5 -3 -1.9 -1.6 -1.9 -3.9 -0.1 -4.6 1.2 -0.4 1 -1.3 -0.9 -4.2 -3.7 -5.8 -5.3 -7.2 -8 -7.2 -2.2 0 -2.5 -0.4 -2.6 -3.7 0 -2.1 -0.2 -6 -0.4 -8.7 -0.4 -4.2 -0.1 -5.1 2.2 -7 1.4 -1.1 3.6 -3.2 5 -4.6 1.8 -1.8 2.6 -2.1 3.2 -1.1 0.5 0.8 2.3 1.2 4.7 0.9 3.7 -0.3 3.9 -0.1 5.1 3.5 0.7 2 2.6 5.1 4.3 6.7 3 2.9 3 3.1 1.4 5.5 -1 1.6 -1.3 3.1 -0.8 4.2 0.4 1 0.8 2.7 0.8 3.8 0.1 1.1 0.9 2.1 2.1 2.3 1.1 0.2 2.6 0.9 3.4 1.6 0.7 0.6 3.2 1.6 5.5 2.3 l4.1 1.1 -5.5 0.2 c-9.3 0.4 -11.5 1.1 -11.8 4.3 -0.2 1.5 0.1 2.7 0.7 2.7 2 0 1.1 3.9 -1.4 5.8 -1.4 1.1 -2.5 2.7 -2.5 3.6 0 0.9 -0.7 1.6 -1.5 1.6 -0.8 0 -1.5 0.7 -1.5 1.5 0 0.9 -0.9 1.5 -2.2 1.5 -1.3 0 -3.2 0.3 -4.3 0.5 -1.1 0.3 -2.6 0.1 -3.3 -0.3z"/></g><g fill="#ba2414"><path d="M120.7 286 c-0.4 -1.7 -1.4 -2 -5.9 -2 -2.9 -0.1 -9.3 -1 -14.3 -2 -4.9 -1.1 -11.1 -2.1 -13.7 -2.3 -2.6 -0.2 -7.2 -1.6 -10.6 -3.2 -4.8 -2.4 -6.1 -3.6 -6.4 -5.8 -0.5 -3.1 1.4 -5.3 3.4 -4 1.5 0.9 11.1 3 17.7 3.8 2.3 0.3 5 0.9 6 1.4 0.9 0.5 3.4 0.9 5.6 1 2.2 0 5.6 0.5 7.5 1.1 1.9 0.5 4.3 1 5.3 1 2.6 0 3.2 -2.8 1.1 -5.1 -1.3 -1.4 -1.7 -3.3 -1.5 -6.3 0.1 -2.9 -0.3 -4.7 -1.3 -5.5 -2.3 -1.9 -2 -4.7 0.7 -5.6 2.8 -1 8.9 -0.6 10.1 0.6 0.6 0.5 2.7 0.9 4.8 0.9 2.1 0 3.8 0.3 3.8 0.6 0 0.8 -3.2 6.5 -5.2 9.3 -1 1.3 -1.8 3.5 -1.8 5 0 2.2 -0.6 4.4 -3.8 13.1 -0.3 0.8 -0.4 2.5 -0.3 3.8 0.3 2.7 -0.5 2.9 -1.2 0.2z"/><path d="M255.1 246.2 c-3 -0.5 -11.1 -6.9 -11.1 -8.8 0 -0.8 -0.3 -1.4 -0.7 -1.4 -0.5 0 -0.8 -1.4 -0.8 -3.1 0 -2.3 0.6 -3.4 2 -3.9 1.2 -0.4 2.7 -1.5 3.4 -2.3 1 -1.3 0.9 -1.8 -0.8 -2.8 -1.5 -1 -1.7 -1.7 -1 -3.1 0.8 -1.4 0.6 -1.8 -0.7 -1.8 -1 0 -2.6 -0.7 -3.6 -1.7 -1.7 -1.5 -1.7 -1.7 -0.2 -3.5 1.4 -1.4 1.4 -1.8 0.3 -1.8 -1.1 -0.1 -1.1 -0.2 0.1 -0.9 3.5 -2 6 -2.3 6 -0.7 0 0.9 0.7 1.6 1.5 1.6 0.8 0 1.5 0.5 1.5 1.1 0 0.6 1.2 1 2.8 0.9 4.8 -0.4 6.2 0 6.2 1.4 0 2 1.8 3 3.3 1.7 0.8 -0.6 1.8 -0.6 2.7 -0.1 0.8 0.6 1.1 1 0.5 1 -0.5 0 -0.3 0.5 0.5 1 1.2 0.7 1.3 1.5 0.4 3.8 -0.6 1.6 -0.9 5.2 -0.7 8.1 0.3 4.1 -0.1 5.8 -1.7 8.1 -1.1 1.5 -2 3.3 -2 3.8 0 1.6 -5.2 3.8 -7.9 3.4z"/></g><g fill="#586061"><path d="M17.5 229.7 c-0.4 -1.6 -0.5 -5 -0.3 -7.8 0.3 -2.7 0.1 -5.2 -0.3 -5.5 -0.5 -0.3 -0.9 -1.6 -0.9 -3 0 -1.4 -0.4 -3.3 -0.9 -4.2 -0.5 -0.9 -1.2 -4.3 -1.6 -7.4 -0.6 -4.9 -0.5 -5.8 0.8 -5.8 1.6 0 4.3 3.7 3.9 5.3 -0.4 1.6 1 0.5 6.1 -4.5 2.9 -2.9 6.7 -6.4 8.6 -7.8 1.8 -1.4 4.1 -3.3 5 -4.3 5.5 -6.3 24.2 -16.8 29.6 -16.6 l3 0.1 -2.8 1 c-1.7 0.6 -2.6 1.5 -2.3 2.4 0.3 0.7 -0.3 1.6 -1.4 1.9 -2.1 0.7 -6.6 4.3 -15 12.2 l-5.5 5.3 4 0.1 c4.9 0.3 5.4 0.2 8.3 -0.7 3.5 -1 2.6 0.9 -1.6 3.3 l-3.7 2.2 5.5 0.2 c7.4 0.4 8.6 0.3 15 -0.5 l5.5 -0.8 -2.4 2 c-1.3 1.1 -2.1 2.4 -1.7 3 0.3 0.5 -1.4 2.3 -3.8 3.8 -4.6 2.9 -5 4.4 -1.3 4.4 4 0.1 -0.4 1.7 -6.5 2.4 -5.5 0.7 -9.9 3.4 -7 4.4 0.7 0.2 2 1.1 2.9 2 1.6 1.6 1.4 1.7 -2.6 2 -5.7 0.4 -6.8 -0.8 -4.5 -4.7 2.8 -4.8 0.7 -5 -3.6 -0.3 -2.2 2.3 -4.5 4.2 -5.3 4.2 -0.8 0 -2.7 2 -4.3 4.5 -2.6 4.2 -3 4.5 -6.1 3.9 -2.2 -0.4 -3.3 -0.2 -3.3 0.6 0 0.6 -1.1 1 -2.6 0.8 -1.7 -0.2 -3.1 0.4 -4.4 2.2 l-1.8 2.5 -0.7 -2.8z"/><path d="M322 176.4 c0 -0.3 1 -1.4 2.2 -2.3 3.4 -2.8 0.7 -3.1 -4.6 -0.5 -2.8 1.3 -5.1 2.4 -5.2 2.4 -0.1 0 0 -1 0.3 -2.1 0.5 -2 0.3 -2.1 -2.3 -1.6 -1.6 0.3 -4.2 0.3 -5.7 0 l-2.8 -0.6 2.2 -2.3 c2.2 -2.4 2.2 -2.4 0.2 -2.4 -2.2 0 -2.7 -2.8 -0.8 -4.2 0.6 -0.4 -0.1 -0.8 -1.5 -0.8 -1.4 0 -2 -0.3 -1.4 -0.8 0.7 -0.4 1.4 -1.8 1.5 -3.1 0.2 -1.3 1.1 -2.8 1.9 -3.2 6.7 -3.5 13.9 -6.7 14.3 -6.3 0.3 0.3 3.2 0.5 6.6 0.5 5.1 0 6.1 0.3 6.6 2 0.7 2.1 3.5 2.5 6.6 0.9 1.6 -0.9 1.9 -2.1 1.7 -7.3 -0.1 -3.4 -0.5 -6.9 -1 -7.8 -0.8 -1.9 -10.1 -4.5 -11.8 -3.4 -0.6 0.4 -0.8 1.5 -0.5 2.6 0.8 2.3 -0.7 2.5 -2.5 0.4 -0.7 -0.8 -1.9 -1.5 -2.6 -1.5 -0.8 0 -1.4 -0.4 -1.4 -1 0 -0.5 -1.1 -1 -2.5 -1 -1.4 0 -2.4 0.3 -2.4 0.8 0.4 2.4 -0.2 3.2 -1.8 2.3 -1 -0.5 -4.9 -1.7 -8.7 -2.7 -5.6 -1.4 -9.2 -1.6 -20.2 -1 -7.4 0.4 -16 1.1 -19.1 1.6 -7.4 1.2 -7.9 0.6 -1.1 -1.5 7.8 -2.4 21.1 -3.7 30.8 -3.1 6 0.4 7.9 0.3 6.5 -0.4 -4.4 -2.2 29.8 1.6 36.5 4 1.4 0.5 3.9 1.4 5.5 2 2.9 1.1 2.9 1.2 1.1 2.5 -1.5 1.2 -1.7 1.7 -0.7 2.9 0.7 0.8 1 1.9 0.7 2.5 -0.9 1.4 0.4 4.1 2 4.1 1 0 1.1 0.6 0.4 2.5 -0.6 1.6 -0.6 2.5 0 2.5 0.6 0 1 0.9 1 2 0 1.1 -0.4 2 -1 2 -0.5 0 -1 -0.6 -1 -1.2 0 -0.9 -0.3 -0.9 -0.9 0.1 -1 1.5 0.7 5.3 2 4.5 1.7 -1 3.9 1 3.9 3.7 0 2.4 -0.5 3 -3.7 3.9 -2.1 0.6 -4.7 1.7 -5.7 2.5 -1.1 0.8 -2.8 1.5 -3.9 1.5 -1 0 -4.9 1.4 -8.7 3 -6.7 3 -9 3.6 -9 2.4z"/><path d="M130.5 167.1 c-12.6 -3.1 -18.7 -5.2 -19.7 -6.6 -0.5 -0.6 -1.1 -0.5 -1.7 0.4 -1.3 2 -4.1 0.6 -4.1 -2.2 0 -2.7 1.7 -4.7 4 -4.7 0.9 0 1.7 -0.6 1.8 -1.2 0.4 -5.9 5.3 -15.6 11 -21.5 4 -4.1 5.4 -5 7.4 -4.6 1.4 0.3 3.5 0 4.7 -0.6 1.8 -1 2.1 -0.9 2.3 1.1 0.1 1.3 0.2 3.2 0.3 4.3 0.1 1.1 0.3 3.9 0.4 6.3 0.1 3.8 0.3 4.2 2.6 4.2 2.7 0 4.3 1.4 8 7.2 1.9 2.9 2.1 3.8 0.9 4.2 -1.8 0.7 -1.8 3 0.1 4.6 1.1 0.9 1.2 1.7 0.5 3 -0.6 1 -1 2.8 -1 3.9 0 1.3 -1.1 2.6 -3 3.6 -1.6 0.8 -3 1.5 -3.2 1.4 -0.2 0 -5.2 -1.3 -11.3 -2.8z"/></g><g fill="#d72f16"><path d="M261.7 290.5 c-3.7 -4.4 -6.7 -5.8 -6.7 -3.2 -0.1 2.9 -2.2 -2.7 -2.5 -6.7 -0.2 -2.4 -0.8 -5.2 -1.3 -6.2 -1.8 -3.4 -3 -6.9 -3.7 -9.9 -2.1 -10.1 -8.9 -22 -13.6 -23.8 -1.1 -0.4 -1.2 -0.7 -0.2 -1.8 1.1 -1.1 2.1 -0.9 5.8 0.9 2.5 1.2 4.5 2.6 4.5 3.1 0 1.5 3.3 2.3 4.1 0.9 0.6 -0.9 1.2 -0.8 2.7 0.5 1 0.9 2.8 1.7 3.9 1.7 4 0 6.6 5.6 11.2 23.7 1.9 7.5 2 8.6 0.7 11.8 -1 2.3 -1.3 5.2 -0.9 8.5 0.3 2.8 0.4 5 0.2 5 -0.3 0 -2.2 -2 -4.2 -4.5z"/><path d="M130 254.2 c-1.9 -0.1 -4.4 -0.7 -5.5 -1.2 -3.7 -1.6 -7.7 -1.8 -10.3 -0.4 -2.2 1.1 -2.8 1 -5 -0.7 -1.4 -1 -3.1 -1.9 -3.9 -1.9 -1 0 -1.1 -0.5 -0.4 -1.8 1.5 -2.8 0.3 -6.1 -2 -5.5 -1.6 0.5 -1.9 0 -1.9 -3.2 0 -2.4 -0.6 -4.3 -1.8 -5.1 -1 -0.8 -1.2 -1.3 -0.4 -1.4 2 0 -0.9 -4 -3 -4 -0.9 0 -2 -0.4 -2.3 -1 -0.3 -0.5 0.1 -1 1.1 -1 1.4 0 1.5 -0.2 0.3 -1.7 -1.3 -1.5 -1 -1.6 4 -1 2.9 0.4 8.7 0.1 12.8 -0.5 6.3 -1 7.6 -1 8.4 0.3 0.5 0.8 0.9 0.9 0.9 0.3 0 -1.9 6 -3.9 7.9 -2.7 1.2 0.7 4.8 0.8 10.7 0.4 4.9 -0.4 9 -0.7 9.2 -0.6 0.1 0.1 -1.3 2.1 -3.2 4.4 -2 2.4 -3.8 5.8 -4.1 7.9 -0.7 4.2 -4 11.1 -6.2 12.9 -0.8 0.6 -1.2 1.6 -0.9 2.1 0.3 0.5 0.2 2 -0.2 3.3 -0.6 2 -1.2 2.4 -4.2 2.1z"/><path d="M193.7 219 c-1.6 -1.6 -1.6 -1.9 0.7 -5.3 1.4 -2 2.1 -3.9 1.6 -4.2 -1.6 -1 -1.2 -3.6 0.8 -5.4 1 -0.9 2.8 -3 4 -4.8 5.5 -7.8 16.6 -14.4 27.1 -16 l3.3 -0.5 -2.1 2.1 c-1.1 1.1 -2.1 2.7 -2.1 3.4 0 0.6 -1.5 2.9 -3.4 5.1 -3 3.3 -3.3 4.2 -2.5 6.3 0.6 1.7 0.6 3 -0.1 3.8 -1.7 2.1 0.5 6.4 3.7 7 1.5 0.4 4.1 1.3 5.6 2.1 2.2 1.2 3.4 1.3 5.9 0.5 1.7 -0.6 4 -1.1 5.1 -1.1 1.7 0 1.8 0.3 0.9 1.3 -0.7 0.6 -2.3 1.3 -3.5 1.4 -1.2 0 -4.7 0.6 -7.7 1.3 -5.2 1 -12.8 2 -17.7 2.1 -1.3 0.1 -2.3 0.5 -2.3 0.9 0 1.2 -10.4 1.9 -11.1 0.8 -0.4 -0.7 -1.3 -0.7 -2.5 0 -1.4 0.7 -2.4 0.5 -3.7 -0.8z"/></g><g fill="#6e5858"><path d="M50.4 278.7 c-1.2 -0.7 -4.4 -3.2 -7.1 -5.7 -5.5 -4.9 -7.9 -10.5 -4.9 -11.6 0.8 -0.3 1.8 -1.4 2.1 -2.5 0.4 -1 1.5 -1.9 2.5 -1.9 1.7 0 1.8 -0.4 0.8 -3.1 -0.6 -1.6 -2.1 -3.7 -3.4 -4.6 -1.3 -0.8 -2.4 -2.2 -2.4 -2.9 0 -0.8 -0.4 -1.4 -1 -1.4 -2 0 -1 -1.7 1.7 -2.9 2.3 -1.1 2.9 -1 3.9 0.3 0.6 0.9 1.6 1.6 2.3 1.6 0.6 0 1.1 0.5 1.1 1 0 0.6 0.8 1 1.7 1 0.9 0 2.4 0.6 3.2 1.4 1.7 1.5 10.2 4.6 12.7 4.6 2.9 0 11.9 7.1 10.6 8.4 -0.3 0.3 -1.4 0.6 -2.4 0.6 -1 0 -1.8 0.4 -1.8 1 0 0.5 -1.9 2.2 -4.2 3.6 -2.4 1.5 -4.4 3.1 -4.6 3.5 -0.2 0.5 -1 0.9 -1.8 0.9 -0.9 0 -2.4 0.5 -3.6 1.1 -2 1.1 -2 1.1 0.3 3.5 2 2.2 2.1 2.4 0.4 2.4 -1 0 -2.3 0.7 -2.9 1.4 -0.9 1.2 -1.5 1.3 -3.2 0.3z"/><path d="M230.6 180.2 c6.8 -4.9 8.7 -5.6 16.6 -5.8 4.5 -0.1 9.2 -0.9 11.5 -1.9 6.9 -3 11.8 -5.8 14 -7.8 1.2 -1.1 2.9 -1.7 3.7 -1.4 0.9 0.4 1.8 0.2 2.1 -0.3 0.3 -0.5 1.2 -0.7 2 -0.4 0.8 0.3 3.1 -0.4 5 -1.6 2.1 -1.3 4.4 -2 5.7 -1.7 1.1 0.3 4.5 -0.5 7.5 -1.9 3.1 -1.3 5.7 -2.4 5.8 -2.4 0.7 0 -1 5.6 -1.9 6.2 -0.6 0.4 0 0.8 1.4 0.8 l2.5 0 -3 2 c-2.2 1.4 -3.9 1.8 -6.5 1.4 -2.9 -0.5 -4.2 -0.1 -6.7 2 -1.7 1.4 -3.9 2.6 -4.8 2.6 -0.9 0 -2.8 0.9 -4.2 2 -3.2 2.5 -8.9 3.6 -10.7 2.1 -0.7 -0.6 -2.7 -0.8 -4.5 -0.5 -1.8 0.4 -3.1 0.2 -3.1 -0.3 0 -0.6 -1.7 -0.2 -3.7 0.8 -7.1 3.4 -17.8 6.9 -21.5 6.9 -2 0 -4 0.5 -4.3 1 -0.3 0.6 -2 1 -3.7 1 l-3.1 0 3.9 -2.8z"/></g><g fill="#b54330"><path d="M227.2 367 c0.7 -1.1 2.6 -2.6 4.3 -3.4 3.8 -1.9 7.5 -5.3 7.5 -7 0 -0.8 1.2 -2.1 2.6 -3.1 2 -1.3 2.3 -1.9 1.4 -3 -0.9 -1.1 -0.7 -1.8 0.9 -3.4 1.2 -1.2 2.1 -3 2.1 -4.2 0 -2 0.7 -2.1 5.8 -0.2 2 0.8 1.4 -1.1 -0.8 -2.5 -2.8 -1.7 -2.7 -6.8 0.3 -8.3 1.2 -0.7 2.5 -1.7 2.9 -2.3 1.2 -1.8 0.9 -6.9 -0.6 -9.8 -1.7 -3.2 -1.1 -6.4 1.6 -9.4 1.5 -1.7 1.6 -2.3 0.6 -2.6 -1 -0.4 -1.1 -0.8 -0.1 -2 1.4 -1.7 1.1 -8.6 -0.6 -13 -1.6 -4.2 0.4 -4.2 3 0 2.7 4.3 3.7 8.5 4.8 19.9 0.4 4.5 1 8.5 1.3 8.8 0.3 0.3 0 3.2 -0.7 6.5 -1.5 7.1 -0.4 9.7 3.6 8.7 4.6 -1.2 5.2 0.6 1.6 5.2 -4.8 6 -13.5 13.4 -14.8 12.5 -0.7 -0.4 -0.9 -0.3 -0.6 0.3 0.4 0.6 -0.4 1.8 -1.8 2.7 -2.9 1.9 -3.9 2 -2.9 0.4 0.4 -0.7 0.3 -0.8 -0.5 -0.4 -0.6 0.4 -0.8 1.2 -0.5 1.8 0.5 0.7 0.1 0.9 -0.9 0.5 -1 -0.4 -1.6 -0.2 -1.4 0.6 0.1 0.7 -0.6 1.1 -1.5 1.1 -1 -0.1 -1.6 0.2 -1.5 0.7 0.2 1.1 -12 6.8 -14.6 6.9 -1.5 0 -1.5 -0.3 -0.5 -2z"/><path d="M109.5 273.9 c-1.6 -0.5 -4.8 -1 -7 -1 -2.2 -0.1 -4.7 -0.5 -5.6 -1 -1 -0.5 -3.7 -1.1 -6 -1.4 -6.3 -0.8 -15.9 -2.9 -19.3 -4.3 -1.9 -0.9 -2.6 -1.7 -2.2 -2.8 0.3 -0.9 0.6 -1.8 0.6 -2 0 -0.2 0.8 -0.4 1.9 -0.4 1 0 2.4 -0.7 3.1 -1.5 0.7 -0.8 2 -1.5 3 -1.5 1 0 2.3 -0.7 3 -1.5 0.7 -0.8 1.9 -1.5 2.6 -1.5 0.8 0 3.5 -1.3 6.1 -2.9 3.9 -2.5 5.7 -2.9 10.3 -2.8 6.2 0.2 10.6 2.4 12 6.2 0.5 1.2 1.4 2.6 2 3 0.6 0.4 1 2.6 0.9 5.1 -0.2 3 0.2 4.9 1.5 6.3 3.7 4.1 0.1 6.2 -6.9 4z"/></g><g fill="#f64215"><path d="M243.8 242.7 c-3.8 -3.5 -8.5 -5.2 -10.2 -3.8 -1.1 1 -2.5 0.9 -6.3 -0.4 -2.6 -0.9 -5.2 -2 -5.8 -2.4 -2.7 -2.1 -26.6 -9.1 -31.1 -9.1 -7.1 0 -15.1 2.4 -19.3 5.8 -3.1 2.5 -8 4.9 -8.9 4.3 -0.1 -0.1 -1 0.5 -1.9 1.4 -1.8 1.8 -2.6 1.5 -1.7 -0.8 0.3 -0.8 2.2 -2.3 4.2 -3.2 2 -0.9 4.4 -2 5.2 -2.6 0.8 -0.5 2.3 -1.2 3.3 -1.6 1.2 -0.4 1.4 -0.9 0.8 -1.7 -0.7 -0.8 0.1 -2.1 2.5 -4.1 2 -1.7 7.2 -6.3 11.6 -10.3 7.2 -6.4 8.2 -7 9.3 -5.5 1 1.3 0.8 2.3 -1.2 5.1 -2.2 3.3 -2.2 3.6 -0.6 5.2 1.3 1.3 2.3 1.5 3.7 0.8 1.2 -0.7 2.1 -0.7 2.5 0 0.7 1.1 11.1 0.4 11.1 -0.8 0 -0.4 1 -0.8 2.3 -0.9 7.3 -0.2 20.3 -2.2 23.7 -3.5 1 -0.4 2.5 0.3 4 1.9 1.3 1.4 3.2 2.5 4.2 2.5 1.5 0 1.7 0.4 0.9 1.8 -0.7 1.4 -0.5 2.1 1 3.1 1.7 1 1.8 1.5 0.8 2.8 -0.7 0.8 -2.2 1.9 -3.4 2.3 -1.4 0.5 -2 1.6 -2 3.9 0 1.7 0.3 3.1 0.8 3.1 0.4 0 0.7 0.6 0.7 1.4 0 0.8 1 2.3 2.3 3.3 1.3 1 2.2 2.4 1.9 3.1 -0.6 1.8 -1.6 1.5 -4.4 -1.1z"/></g><g fill="#d86b15"><path d="M175.5 375 c-5.2 -0.4 -11.1 -1.6 -14 -2.7 -2.7 -1.2 -6.5 -2.7 -8.2 -3.3 -1.8 -0.7 -3 -1.7 -2.6 -2.3 0.3 -0.6 0.1 -0.7 -0.5 -0.3 -1.4 0.8 -5.5 -1.8 -4.5 -2.8 0.4 -0.4 -0.1 -0.4 -1.1 0 -1.5 0.6 -1.7 0.4 -1.1 -0.6 0.5 -0.8 0.4 -1.1 -0.3 -0.7 -3 1.9 -7.1 -3.5 -4.6 -6 0.7 -0.7 2 -1.3 2.9 -1.3 0.9 0 1.3 -0.5 1 -1 -0.4 -0.6 0.7 -1.3 2.4 -1.6 3.7 -0.8 4 -2.1 0.6 -3 -1.4 -0.3 -2.5 -1 -2.5 -1.4 0 -0.9 3.1 -3.6 3.7 -3.2 0.6 0.4 0.6 -0.2 -0.2 -5.8 -0.4 -3 -1.2 -6.1 -1.7 -6.7 -0.6 -0.7 -0.8 -2 -0.4 -2.8 0.3 -0.9 -0.4 -2.1 -1.9 -3.1 -2.6 -1.7 -2.4 -3.9 0.6 -4.7 2.8 -0.7 2.5 -4.7 -0.3 -4.7 l-2.2 0 2.2 -1.6 c2.6 -1.8 2.8 -3.7 0.5 -5.9 -1.3 -1.4 -1.4 -1.8 -0.2 -2.5 2 -1.3 3.6 0.5 3.7 4.6 0.1 2.2 0.9 4.2 1.9 5 1.1 0.8 1.4 1.7 0.8 2.1 -1.4 1.1 -1.9 9.7 -0.5 8.8 0.5 -0.3 1.3 0.2 1.7 1.1 0.3 1 1.4 2.5 2.2 3.4 0.9 1 3.4 3.8 5.5 6.3 2.1 2.6 4.2 4.4 4.6 4.2 1.3 -0.8 7 2.6 7 4.1 0 0.8 0.9 1.4 1.9 1.4 1.1 0 2.3 0.4 2.6 1 0.3 0.5 1.6 1 2.8 1 2.2 0 7.8 0.7 8.7 1 1.8 0.7 6.7 -0.4 7.7 -1.7 0.6 -0.8 1.8 -1.3 2.5 -1.1 0.7 0.3 1.8 -0.2 2.4 -1 0.6 -0.8 3 -1.6 5.3 -1.8 2.4 -0.2 5 -0.9 5.7 -1.5 1 -0.8 1.4 -0.8 1.4 0 0 0.6 1 1.1 2.3 1.1 2.4 0 6.3 -5.2 5.2 -6.9 -0.7 -1.3 1.4 -2.5 4.8 -2.7 3 -0.2 6.7 -2.9 6.7 -5 0 -0.7 0.6 -1.7 1.4 -2.1 1.9 -1.1 2.3 -4.3 0.8 -7.1 -0.7 -1.2 -0.9 -2.8 -0.5 -3.5 0.4 -0.6 0.8 -3 0.8 -5.2 0 -3.8 0.2 -4 2.9 -3.8 1.9 0.1 3.4 -0.5 4.6 -2 1.5 -1.8 2 -1.9 3.3 -0.9 1.1 0.9 1.7 1 2.2 0.2 0.5 -0.8 1.3 -0.6 2.5 0.5 1 0.9 2.4 1.5 3.2 1.4 0.7 -0.1 2.4 -0.1 3.7 0 l2.4 0.1 -2 2.3 c-2.8 3.1 -3.4 6.3 -1.7 9.5 1.5 2.9 1.8 8 0.6 9.8 -0.4 0.6 -1.7 1.6 -2.9 2.3 -3 1.5 -3.1 6.6 -0.3 8.3 2.2 1.4 2.8 3.3 0.8 2.5 -5.1 -1.9 -5.8 -1.8 -5.8 0.2 0 1.2 -0.9 3 -2.1 4.2 -1.6 1.6 -1.8 2.3 -0.9 3.4 0.9 1.1 0.6 1.7 -1.4 3 -1.4 1 -2.6 2.3 -2.6 3.1 0 1.6 -5 6.4 -6.6 6.4 -0.6 0 -2.5 1.4 -4.2 3.1 -2.1 2.1 -4.3 3.3 -6.8 3.6 -2 0.2 -4.5 0.8 -5.5 1.3 -6 3.2 -26 5.2 -40.4 4z"/></g><g fill="#dc4834"><path d="M286.4 261.3 c-2 -4.7 -3.7 -5.4 -5.4 -2.3 -4.1 7.8 -3.8 -9.4 0.3 -17.6 6.4 -12.7 19.8 -27 31.2 -33.4 10.5 -6 28.6 -11 39.4 -11 5.2 0 4.8 1.1 -0.6 1.6 -2.1 0.1 -5.7 0.9 -8 1.8 -2.3 0.8 -5.1 1.2 -6.2 0.9 -1.1 -0.3 -3.4 0.2 -5 1 -1.7 0.9 -4.5 1.8 -6.2 2.2 -1.8 0.4 -3.3 1.5 -3.6 2.5 -0.3 1 -1.7 2.1 -3.1 2.5 -3 0.7 -8.2 5.2 -8.2 7 0 0.6 -2 3.3 -4.4 6 -2.4 2.6 -4.2 5.3 -4 6 0.3 0.7 -0.2 1.5 -1 1.8 -0.9 0.4 -1.6 1.4 -1.6 2.3 0 0.9 -0.9 2.7 -2 4.1 -1.1 1.4 -2 3.3 -2 4.2 0 1 -0.7 2.6 -1.5 3.7 -0.8 1 -1.5 3.2 -1.5 4.8 0 3.2 -2 10.8 -3.1 11.6 -0.4 0.3 -0.9 1.4 -1.1 2.5 -0.4 1.6 -0.8 1.1 -2.4 -2.2z"/><path d="M423.4 221.6 c-0.3 -0.9 -1.9 -1.3 -4.7 -1.1 -2.3 0.1 -4.5 -0.3 -4.9 -0.9 -0.5 -0.7 -0.8 -0.6 -0.8 0.3 0 0.7 -1.9 -0.9 -4.2 -3.8 -2.3 -2.8 -4.7 -5.1 -5.5 -5.1 -0.7 0 -1.2 -0.4 -1 -0.8 0.5 -1.9 -12.1 -10.4 -18.2 -12.3 -1.9 -0.5 -2.1 -0.8 -0.7 -0.8 1.8 -0.1 1.7 -0.3 -0.4 -2.1 -1.3 -1.1 -2.7 -2 -3.2 -2 -0.4 0 -0.8 -2.5 -0.8 -5.6 0 -4.9 0.2 -5.5 1.5 -4.4 1.2 1 2.7 0.8 7.7 -1 3.5 -1.2 8.7 -3.1 11.7 -4.1 3 -1 5.9 -2.3 6.5 -2.8 0.6 -0.4 4 -1.1 7.6 -1.5 5.4 -0.5 6.2 -0.4 4.6 0.7 -5.4 3.5 -7.6 6 -7.6 8.6 0 1.5 -0.4 3.1 -0.9 3.6 -0.6 0.6 -0.6 2.9 0 6 0.9 4.8 2.4 6.6 6.2 7.2 1 0.2 5.3 1.7 9.5 3.3 4.2 1.6 8.3 3 9.1 3 2.3 0 -3.9 4.3 -9.3 6.6 -3.7 1.4 -5.2 2.6 -5.4 4.2 -0.3 1.6 0.2 2.2 1.5 2.2 1.9 0 4.3 1.8 4.3 3.2 0 1.3 -2 0.9 -2.6 -0.6z"/></g><g fill="#c97827"><path d="M203 345.2 c0 -1 3.8 -4.2 4.8 -4 1.2 0.3 9.3 -8.2 8.7 -9.2 -0.3 -0.5 0.1 -2 1 -3.3 0.8 -1.3 1.3 -3.2 0.9 -4.1 -0.3 -0.9 -0.1 -2.3 0.6 -3.1 0.9 -1 1.3 -6 1.4 -15.3 0.1 -12.7 -0.1 -13.9 -2.1 -16.9 -1.3 -1.7 -2.3 -3.8 -2.3 -4.7 0 -0.9 -0.7 -1.9 -1.5 -2.2 -0.8 -0.4 -1.5 -1.3 -1.5 -2 0 -0.8 -1 -1.9 -2.2 -2.4 -3.6 -1.5 -6.1 -3.8 -5.3 -4.9 0.3 -0.7 -0.3 -1.1 -1.5 -1.1 -1.2 0 -3.5 -0.7 -5.1 -1.6 -1.7 -0.8 -5.8 -1.7 -9.2 -1.9 -3.4 -0.1 -6.9 -0.6 -7.8 -1 -1 -0.3 -2 -0.2 -2.4 0.4 -0.3 0.6 -1.7 1.1 -3.1 1.1 -3.7 0 -10.8 4.5 -15.8 10.1 -5.5 6.1 -8.2 6.5 -3.2 0.5 2 -2.4 3.6 -4.9 3.6 -5.6 0 -0.6 0.5 -0.8 1.1 -0.4 0.7 0.4 2.8 -1.1 5 -3.6 2.2 -2.4 4.2 -4 4.5 -3.7 0.4 0.4 2 -0.5 3.6 -1.8 1.6 -1.4 4.8 -2.8 7 -3.1 2.2 -0.4 4.2 -1.3 4.5 -2.1 0.3 -0.7 1.9 -2.1 3.6 -2.9 2.7 -1.5 3.1 -1.5 3.9 0 0.5 0.9 1.3 1.4 1.9 1.1 0.5 -0.4 0.9 -0.1 0.9 0.6 0 0.8 1 0.9 3 0.5 2.2 -0.4 3.2 -0.1 3.6 0.9 0.4 0.8 1.3 1.5 2 1.5 0.8 0 1.9 1 2.4 2.3 0.5 1.2 0.9 1.6 0.9 1 0.1 -0.7 1.2 -1.3 2.6 -1.3 1.4 0 2.4 0.3 2.3 0.8 -0.1 0.4 0.4 1.7 1.2 3 1.5 2.2 4 3 4 1.2 0 -0.5 0.4 -1 1 -1 0.5 0 0.9 1 0.7 2.3 -0.1 1.6 0.3 2.2 1.7 2.2 1.3 0 2.3 1.1 2.9 3 0.5 1.7 1.5 3.7 2.3 4.5 1 1.2 1 2.6 -0.5 8 -2 7.4 -2 7.5 2.4 15 3.1 5.5 4.1 12.5 2.2 15.7 -0.5 0.7 -0.2 2.3 0.5 3.5 1.5 2.8 1.1 6 -0.8 7.1 -0.8 0.4 -1.4 1.4 -1.4 2.1 0 2.1 -3.7 4.8 -6.7 5 -3.4 0.2 -5.5 1.4 -4.8 2.7 1.1 1.7 -2.8 6.9 -5.2 6.9 -1.3 0 -2.3 -0.5 -2.3 -1.1 0 -0.8 -0.4 -0.8 -1.2 -0.2 -1.8 1.4 -6.8 2.5 -6.8 1.5z"/><path d="M351.5 311.9 c-0.3 -0.4 -2 -0.6 -3.9 -0.4 -2.7 0.4 -3.5 0 -4.7 -2.1 -1.2 -2.4 -1.4 -2.4 -2.6 -0.8 -1.2 1.6 -1.3 1.5 -1.3 -1.3 0 -4.7 -0.9 -6.3 -3.9 -6.3 -3.3 -0.1 -6.5 -2.5 -5.8 -4.4 0.3 -0.8 0.1 -1.7 -0.6 -2 -0.7 -0.2 -0.2 -0.5 1.1 -0.5 1.2 -0.1 2.2 0.4 2.2 0.9 0 0.6 0.5 1 1.1 1 0.5 0 2.4 1.3 4.2 3 1.8 1.6 4.1 3 5.2 3 1.1 0 3.4 0.9 5.2 2 3.8 2.3 12.5 3.2 16.8 1.7 8.1 -2.8 20.5 -15.8 20.5 -21.7 0 -1.1 0.7 -2 1.5 -2 0.8 0 1.5 -0.9 1.5 -2 0 -1.8 0.2 -1.9 2 -0.8 1.1 0.7 2 2.1 2 3.1 0 1 0.6 2 1.4 2.3 0.8 0.3 1.2 1.2 0.9 2 -0.3 0.8 0.3 2.4 1.2 3.4 1.6 1.7 1.6 2 0.2 2 -1 0 -1.3 0.6 -1 2 0.3 1.1 0.1 2 -0.4 2 -0.4 0 -1.9 2 -3.3 4.4 -1.6 3.1 -3.2 4.6 -5.1 5 -1.4 0.3 -3.3 1.2 -4.2 2 -1.6 1.7 -8.4 2.9 -9.1 1.7 -0.7 -1.1 -9.6 1.1 -9.6 2.4 0 1.2 -10.8 1.6 -11.5 0.4z"/></g><g fill="#707d7e"><path d="M33.2 262.3 c-1.6 -2.1 -3.7 -5.2 -4.6 -7 -1 -2 -2.1 -3 -3 -2.7 -0.9 0.3 -1.7 -0.3 -2.1 -1.5 -0.3 -1.2 -1.1 -2.1 -1.6 -2.1 -0.5 0 -0.9 -0.7 -0.9 -1.5 0 -0.8 -0.4 -1.5 -0.9 -1.5 -1.2 0 -4.1 -10.8 -4.1 -15.1 0.1 -3.3 0.1 -3.3 1.4 -1.1 l1.3 2.4 1.6 -2.5 c1.2 -1.8 2.2 -2.3 4.1 -2 1.7 0.4 2.6 0.1 2.6 -0.7 0 -0.9 1 -1.1 3.1 -0.6 2.3 0.4 3.5 0.1 4.7 -1.4 1 -1 2.9 -2.2 4.5 -2.6 2.2 -0.5 2.7 -0.3 2.7 1.3 0 1.1 -0.3 2.3 -0.7 2.7 -0.9 0.9 -3.3 7.7 -3.3 9.5 0 0.8 0.7 2.2 1.6 3.2 1.5 1.7 1.5 1.9 -1 3 -2.6 1.2 -3.5 2.9 -1.6 2.9 0.6 0 1 0.6 1 1.4 0 0.7 1.1 2.1 2.4 2.9 1.3 0.9 2.8 3 3.4 4.6 1 2.8 0.9 3.1 -0.9 3.1 -1 0 -1.9 0.4 -1.9 1 0 0.5 -1 1.8 -2.1 2.9 -1.3 1.2 -1.9 2.6 -1.6 3.5 1.1 2.8 -1.1 1.7 -4.1 -2.1z"/></g><g fill="#c15b58"><path d="M204.5 157.7 c-2.2 -0.5 -7.1 -1.1 -11 -1.4 -3.8 -0.2 -7.4 -0.9 -8 -1.4 -0.5 -0.5 -2 -0.9 -3.5 -0.9 l-2.5 -0.1 2.4 -1.3 c2 -1.1 2.1 -1.4 0.6 -1.9 -0.9 -0.4 -2.5 -0.7 -3.6 -0.7 -1 0 -1.9 -0.4 -1.9 -0.9 0 -0.5 -1.7 -1.2 -3.7 -1.6 -2.1 -0.4 -4.5 -1.3 -5.3 -2 -0.8 -0.7 -2.4 -1.5 -3.5 -1.7 -1.2 -0.2 -2 -1.2 -2.1 -2.3 0 -1.1 -0.4 -2.8 -0.8 -3.8 -0.5 -1.1 -0.2 -2.6 0.8 -4.2 1.6 -2.4 1.6 -2.6 -1.4 -5.5 -1.7 -1.6 -3.6 -4.7 -4.3 -6.7 -1.2 -3.7 -1.4 -3.8 -5.5 -3.5 -3.3 0.3 -4.2 0 -4.2 -1.2 0 -0.9 0.8 -1.9 1.8 -2.3 0.9 -0.4 3.5 -1.8 5.7 -3.3 8.9 -6 24 -11.2 28 -9.6 2.9 1.1 -0.8 5.6 -7.3 8.8 -7 3.5 -8.2 5.6 -6.3 11.7 1 3.6 1.2 3.7 5.9 3.8 4.4 0.1 8.2 0.9 14.7 3.3 1.8 0.6 1.7 0.9 -1.5 2.9 -3.3 1.9 -7.4 2.7 -12.7 2.2 -3.2 -0.3 -2.8 0.4 1.4 2.4 3.2 1.5 3.4 1.9 1.8 2.7 -1.4 0.8 -1.5 1.2 -0.4 1.9 0.8 0.5 2.6 0.9 4.2 0.9 1.7 0 2.7 0.5 2.7 1.5 0 1.6 7.7 5.5 10.9 5.5 1.2 0 2.1 0.6 2.1 1.4 0 2.3 2.7 3.7 8.4 4.3 5.9 0.6 6.7 1.2 3.9 2.9 -1.2 0.6 -3.2 0.7 -5.8 0.1z"/></g><g fill="#ed7e1b"><path d="M133.3 354.5 c-1.2 -1.2 -1.9 -2.6 -1.6 -2.9 0.4 -0.3 0.1 -0.6 -0.6 -0.6 -2.7 0 -7.7 -7.8 -10.4 -16 -3.6 -10.9 -3.2 -40.3 0.5 -42.6 0.5 -0.4 1.8 0.3 2.8 1.4 1 1.1 2.5 2.2 3.2 2.5 1.1 0.3 1.1 0.8 0 2.6 -1.1 1.8 -1 2.1 0.6 2.1 1.1 0 2.2 -1.3 3 -3.2 1 -2.7 1.4 -3 2.2 -1.8 0.5 0.8 1 1 1 0.5 0 -0.6 0.8 -1.1 1.8 -1.1 0.9 0 3.4 -0.4 5.5 -0.8 3 -0.6 3.7 -0.4 3.7 0.9 0 0.8 0.7 1.5 1.5 1.5 0.8 0 1.5 0.5 1.5 1 0 1.9 -3.9 8.8 -5.2 9.2 -0.9 0.3 -0.8 0.9 0.5 2.2 2.3 2.3 2.2 4.2 -0.5 6 l-2.2 1.6 2.2 0 c2.8 0 3.1 4 0.3 4.7 -3 0.8 -3.2 3 -0.6 4.7 1.5 1 2.2 2.2 1.9 3.1 -0.4 0.8 -0.2 2.1 0.4 2.8 0.5 0.6 1.3 3.5 1.6 6.2 0.9 6 0.8 7 -0.1 7 -1.3 0 -3.3 1.6 -3.3 2.5 0 0.4 1.1 1.1 2.5 1.4 3.4 0.9 3.1 2.2 -0.6 3 -1.7 0.3 -2.8 1 -2.4 1.6 0.3 0.5 -0.3 1 -1.4 1 -1.2 0 -2.1 0.5 -2.1 1 0 1.8 -3.5 0.9 -5.7 -1.5z"/><path d="M358.5 340.4 c-6.6 -0.7 -14.9 -1.5 -18.5 -1.9 -10.5 -0.9 -13.1 -1.5 -17 -4 -4.6 -2.9 -11.8 -11.3 -15.5 -18 -1.5 -2.7 -3.5 -5.9 -4.4 -7 -7.1 -8.1 -14.1 -27.6 -14.4 -40.3 -0.1 -4.5 0.2 -7.5 0.9 -8 0.6 -0.4 1.5 -2.2 1.9 -3.9 0.7 -3.4 3.1 -4.5 4.1 -1.8 0.4 0.8 1.5 1.5 2.6 1.5 1.5 0 1.9 -0.5 1.5 -2 -0.4 -1.7 0 -2 2.8 -2 4.2 0 4.7 0.9 4.7 7.1 0 4.1 0.3 4.9 1.8 4.9 2.3 0 3.4 -3.3 2.1 -5.9 -1.3 -2.3 -1.4 -4.2 -0.3 -4 1.8 0.3 2.4 -0.2 1.4 -1.4 -0.9 -1 -0.4 -1.7 1.8 -3.1 2.8 -1.6 4.2 -5.6 2 -5.6 -2 0 -1 -2.1 1.5 -3 1.6 -0.6 2.3 -1.4 1.9 -2.5 -0.4 -1 -0.2 -1.3 0.8 -1 0.8 0.3 2.1 -0.1 2.8 -1 1.2 -1.4 1.2 -1.8 0 -2.5 -0.7 -0.4 -1.8 -0.6 -2.5 -0.4 -0.6 0.3 -2 -0.5 -3 -1.6 -1.8 -2 -1.8 -2.1 0.1 -3.4 1 -0.8 2.8 -3.1 3.9 -5.3 1.1 -2.1 3 -5.1 4.2 -6.7 1.6 -1.9 2 -3.2 1.4 -4 -0.7 -0.8 0.1 -1.9 2.4 -3.5 2.1 -1.4 3.2 -2.8 2.8 -3.7 -0.3 -0.9 0.2 -1.4 1.6 -1.4 1.5 0 2.1 -0.5 1.9 -1.7 -0.2 -1.3 0.5 -1.7 2.7 -1.9 1.7 -0.1 4.7 -0.8 6.7 -1.7 2 -0.8 3.9 -1.3 4.2 -1 0.3 0.4 3.3 -0.2 6.7 -1.2 5.3 -1.6 7.3 -1.7 17.2 -0.8 6.2 0.6 12.4 1.6 13.9 2.3 2.3 1.1 2.5 1.5 1.2 2.7 -1.9 1.9 -1.8 2.6 0.6 4.8 1.1 1 1.7 2.2 1.4 2.7 -1 1.5 1.5 3.6 3.6 3.1 1.6 -0.4 2 0 2 2.1 0 1.4 0.3 2.6 0.8 2.6 1 0 0.7 4.9 -0.5 7.9 -0.8 2.1 -0.5 2.8 2.1 5.2 3 2.6 3 2.8 1.3 4.7 -1.2 1.3 -1.5 2.2 -0.8 2.7 1.9 1.1 1.3 4.6 -0.6 4.3 -2.7 -0.4 -2.9 3.8 -0.4 5.2 1.2 0.6 2.1 2.1 2.1 3.5 0 1.3 0.5 2.7 1 3 0.6 0.3 1 1.5 1 2.6 0 1.3 0.7 1.9 2.4 1.9 2.8 0 5.1 2.4 4.3 4.5 -0.4 0.8 -0.2 1.7 0.3 2 1.6 1 1.1 2.8 -1.5 5.9 -2.5 2.9 -2.6 6.2 -0.2 7.7 0.5 0.4 0.2 1.4 -0.9 2.5 -1.1 1.1 -2.5 3.2 -3.1 4.7 -1.1 2.3 -1.9 2.7 -5.4 2.7 -3.1 0 -4 -0.3 -3.6 -1.4 0.3 -0.8 -0.1 -1.7 -0.9 -2 -0.8 -0.3 -1.4 -1.3 -1.4 -2.2 0 -0.9 -0.6 -2.2 -1.4 -2.8 -1.2 -0.9 -1.3 -2.1 -0.4 -6.6 1.8 -9.7 -2 -25.5 -8.7 -36.2 -1.7 -2.6 -3.8 -4.8 -4.7 -4.8 -2.2 0 -7.8 -4.8 -7.8 -6.6 0 -0.8 -0.4 -1.4 -1 -1.4 -0.5 0 -1 0.5 -1 1 0 1.5 -2.7 1.2 -4.4 -0.5 -0.8 -0.8 -2.3 -1.5 -3.3 -1.4 -1.6 0 -1.6 0.1 0.2 0.9 1.4 0.6 -0.6 0.9 -6 0.9 -5.2 0.1 -7.5 0.4 -6.6 1 1.1 0.7 0.5 1.1 -2.2 1.6 -2.1 0.4 -4.2 1.6 -4.7 2.6 -0.6 1 -2.6 2.6 -4.5 3.4 -3.6 1.8 -7.7 6.5 -8.9 10.2 -0.4 1.2 -2.3 3.2 -4.2 4.3 -3.4 2.1 -4.8 4.7 -1.9 3.6 1.7 -0.6 2.1 0.9 0.5 1.9 -0.5 0.3 -1 1.9 -1 3.5 0 1.5 -0.6 3 -1.2 3.3 -1 0.3 -1 0.7 0.1 2 1.4 1.8 0.8 6.7 -0.9 6.7 -0.6 0 -1 0.7 -1 1.5 0 0.8 0.6 1.5 1.3 1.5 0.6 0 1.3 1.2 1.4 2.6 0 1.5 0.6 3 1.3 3.4 0.9 0.6 0.9 1.3 0.1 2.9 -1.4 2.4 -0.8 3.6 3.1 6.9 1.5 1.3 2.8 3.3 2.8 4.3 0 1.1 0.6 2.2 1.4 2.5 0.8 0.3 1.2 1.2 0.9 2 -0.7 1.9 2.5 4.3 5.8 4.4 3 0 3.9 1.6 3.9 6.3 0 2.8 0.1 2.9 1.3 1.3 1.2 -1.6 1.4 -1.6 2.6 0.8 1.1 2 2 2.5 4.5 2.2 1.7 -0.2 3.6 -0.1 4.1 0.2 1.6 1.1 11.5 0.8 11.5 -0.3 0 -1.3 8.9 -3.5 9.6 -2.4 0.7 1.2 7.5 0 9.1 -1.7 0.9 -0.8 2.8 -1.8 4.4 -2.1 1.6 -0.3 3.1 -1.4 3.4 -2.4 1 -3 2.8 -2.4 2.4 0.8 0 0.3 0.6 1 1.5 1.5 0.9 0.5 1.3 1.5 0.9 2.5 -0.5 1.2 -0.2 1.5 1 1 1.2 -0.5 1.9 0.1 2.3 1.8 0.9 3.6 3.1 4.5 6.7 2.7 2.3 -1.1 3.2 -1.2 3.5 -0.4 0.2 0.7 0.8 1 1.3 0.6 0.5 -0.3 0.9 0 0.9 0.5 0 0.6 -0.6 1.1 -1.4 1.1 -0.8 0 -1.7 0.8 -2 1.8 -1.1 3.1 -20.3 21.5 -21.8 20.6 -0.7 -0.4 -1 -0.4 -0.6 0.1 1.4 1.5 -3 3.5 -8.4 3.8 -2.9 0.2 -10.7 -0.2 -17.3 -0.9z"/><path d="M234.8 308.3 c-1.6 -0.4 -7.9 -9.7 -9 -13.3 -0.3 -0.8 0.3 -4.4 1.3 -8 1.4 -5.3 1.5 -6.8 0.5 -8 -0.7 -0.8 -1.6 -2.3 -1.9 -3.2 -0.5 -1.4 -0.2 -1.7 1.6 -1.4 1.2 0.3 2.5 0.5 3 0.5 0.4 0.1 0.7 0.8 0.7 1.6 0 1.9 0 1.9 4.1 -0.2 2.5 -1.3 3 -1.8 1.7 -2.1 -2.2 -0.4 -2.3 -1.8 -0.2 -2.6 2.2 -0.9 2.4 -0.8 2.4 0.9 0 2.3 3.7 1.8 5.4 -0.7 1.9 -2.7 1.9 -3.8 0.2 -6 -1.2 -1.7 -1.5 -1.7 -4.5 -0.2 -3.7 1.8 -4.9 1.4 -2.6 -0.9 0.8 -0.9 1.5 -1.9 1.5 -2.4 0 -0.4 1.3 -2.2 2.9 -4 l2.8 -3.2 1.7 5 c0.9 2.8 1.6 5.8 1.6 6.5 0 0.8 0.5 2.3 1 3.4 0.6 1.1 1.5 3 2.1 4.1 0.6 1.2 1.2 4.1 1.4 6.5 0.2 2.3 0.9 5.2 1.5 6.4 0.6 1.2 0.9 2.4 0.6 2.7 -0.2 0.3 0 1.7 0.5 3.2 1.7 4.1 2 11.4 0.6 13.1 -1.6 2.1 -5.7 2.3 -7.8 0.4 -1.2 -1.1 -1.9 -1.2 -2.4 -0.4 -0.5 0.8 -1.1 0.7 -2.2 -0.2 -1.3 -1 -1.8 -0.9 -3.3 1 -1.8 2.2 -2.2 2.3 -5.2 1.5z"/><path d="M146.3 283 c0.4 -1.9 0.1 -3.4 -0.8 -4.4 -2.4 -2.3 -1.8 -3.4 2.5 -4.7 2.2 -0.7 4 -1.5 4.1 -1.8 0.4 -3.3 1.1 -4.7 2.9 -6.1 1.6 -1.2 1.8 -1.8 0.9 -2.7 -1 -1 -0.9 -1.4 0.4 -1.9 0.9 -0.3 1.7 -1.6 1.7 -2.9 0 -1.3 0.7 -2.5 1.5 -2.9 2 -0.7 1.9 -3.2 -0.1 -4 -1.9 -0.7 -6.4 0.3 -6.4 1.5 0 0.5 -1.1 0.4 -2.4 -0.3 -2.4 -1.1 -2.5 -1.1 -0.6 -3.7 1 -1.4 2.1 -4.4 2.5 -6.6 1.4 -9 2.2 -10.3 7 -11 2.4 -0.4 5.2 -1.4 6.2 -2.4 2.9 -2.5 6.4 -4.3 7.1 -3.6 0.4 0.3 0 1 -0.7 1.4 -1 0.7 -1 1 -0.1 1.6 1.2 0.7 -0.8 2.3 -6 4.5 -5.1 2.1 -6.9 3.3 -7.5 4.8 -0.8 2.2 0 2.5 1.8 0.7 0.9 -0.9 1.8 -1.5 1.9 -1.4 0.9 0.6 5.7 -1.8 9.5 -4.7 4.8 -3.6 9 -4.6 7.9 -1.8 -0.3 0.9 -0.6 2 -0.6 2.5 0 0.5 -0.7 0.9 -1.5 0.9 -1 0 -1.5 1 -1.5 2.7 0 1.4 -0.7 3.5 -1.7 4.5 -1.5 1.7 -1.5 1.8 0.4 1.8 2.1 0 3.3 2.4 3.3 6.7 0 2.3 1.5 3.1 7.5 3.8 2 0.3 4.4 0.9 5.3 1.4 1.3 0.7 1.2 1 -0.6 1.5 -1.2 0.4 -2.6 1.5 -3.2 2.5 -0.5 1.1 -2.6 2.1 -4.9 2.5 -2.2 0.3 -5.3 1.7 -6.9 3.1 -1.6 1.3 -3.2 2.2 -3.6 1.8 -0.3 -0.3 -2.3 1.3 -4.5 3.7 -2.2 2.5 -4.3 4 -5 3.6 -0.6 -0.4 -1.1 -0.2 -1.1 0.4 0 0.6 -1.9 3.5 -4.2 6.5 -3.7 4.6 -4.8 5.4 -7.7 5.4 -3.2 0.1 -3.3 0 -2.8 -2.9z"/></g><g fill="#f88d1f"><path d="M399.8 313.9 c-0.9 -0.5 -1.9 -2 -2.2 -3.4 -0.4 -1.7 -1.1 -2.3 -2.3 -1.8 -1.3 0.5 -1.5 0.2 -1 -1.1 0.4 -1 0.1 -1.9 -0.8 -2.2 -0.8 -0.4 -1.3 -0.9 -1.1 -1.3 0.3 -0.4 0.1 -1.3 -0.4 -2.1 -0.9 -1.5 0.8 -6 2.3 -6 0.5 0 0.7 -0.9 0.4 -2 -0.3 -1.4 0 -2 1 -2 1.4 0 1.3 -0.3 -0.2 -2 -1.8 -2 -1.7 -2 2.4 -2 3.6 0 4.3 -0.4 5.4 -2.7 0.6 -1.5 2 -3.6 3.1 -4.7 1.1 -1.1 1.4 -2.1 0.9 -2.5 -2.4 -1.5 -2.3 -4.8 0.2 -7.7 2.6 -3.1 3.1 -4.9 1.5 -5.9 -0.5 -0.3 -0.7 -1.2 -0.3 -2 0.8 -2.1 -1.5 -4.5 -4.3 -4.5 -1.7 0 -2.4 -0.6 -2.4 -1.9 0 -1.1 -0.4 -2.3 -1 -2.6 -0.5 -0.3 -1 -1.7 -1 -3 0 -1.4 -0.9 -2.9 -2.1 -3.5 -2.5 -1.4 -2.3 -5.6 0.4 -5.2 1.9 0.3 2.5 -3.2 0.6 -4.3 -0.7 -0.5 -0.4 -1.4 0.8 -2.7 1.7 -1.9 1.7 -2.1 -1.3 -4.7 -2.6 -2.4 -2.9 -3.1 -2.1 -5.2 1.2 -3 1.5 -7.9 0.5 -7.9 -0.5 0 -0.8 -1.2 -0.8 -2.6 0 -2.1 -0.4 -2.5 -2 -2.1 -2 0.5 -4.8 -1.8 -3.6 -3 0.3 -0.4 -0.3 -1.6 -1.4 -2.8 -2.8 -3 -1.7 -5.9 1.9 -5 3.3 0.8 12.2 7.6 11.5 8.7 -0.3 0.4 0.1 0.8 0.8 0.8 2.5 0 9 9.1 12.5 17.3 4.3 10.3 5.5 15.3 5.9 25.7 0.1 4.7 0.8 10.7 1.4 13.4 0.6 2.6 1.3 7.8 1.6 11.5 0.3 3.6 0.7 7.2 0.9 7.9 0.3 0.6 0 1.2 -0.5 1.2 -0.6 0 -1 1 -1 2.3 0 3 -3.6 10.1 -8 15.8 -5.1 6.5 -5.8 7.1 -7.7 6.5 -1 -0.3 -3 0 -4.4 0.8 -1.6 0.8 -3.2 1 -4.1 0.5z"/><path d="M127.2 298.9 c1.1 -1.8 1.1 -2.3 0 -2.6 -0.7 -0.3 -2.2 -1.4 -3.2 -2.5 -1 -1.1 -2.3 -1.8 -2.8 -1.5 -1 0.7 -0.9 -1.9 0.2 -4.4 0.4 -1 0.6 -2.3 0.5 -3 -0.1 -0.8 0 -2.1 0.3 -2.9 3 -8.1 3.8 -10.9 3.8 -13.1 0 -1.5 0.9 -3.8 2 -5.2 1.1 -1.4 2 -2.8 2 -3.2 0 -0.4 0.9 -2 2 -3.6 1.2 -1.5 2.2 -4.3 2.3 -6.1 0.1 -1.8 0.7 -3.7 1.3 -4.3 2 -1.7 5.2 -8.9 5.9 -12.7 0.3 -2 1.4 -4.7 2.4 -6 l1.9 -2.3 0.8 2.9 c0.4 1.7 0.2 3.6 -0.5 4.7 -1.3 2.1 -1.5 4.9 -0.3 4.9 1.3 0 4.3 -4 3.7 -5 -0.4 -0.6 -0.2 -1 0.4 -1 1.6 0 3.2 6.7 2.6 10.7 -0.4 2.1 -1.5 5 -2.5 6.4 -1.9 2.6 -1.8 2.6 0.6 3.7 1.3 0.7 2.4 0.8 2.4 0.3 0 -1.2 4.5 -2.2 6.4 -1.5 2 0.8 2.1 3.3 0.1 4 -0.8 0.4 -1.5 1.6 -1.5 2.9 0 1.3 -0.8 2.6 -1.7 2.9 -1.3 0.5 -1.4 0.9 -0.4 1.9 0.9 0.9 0.7 1.5 -0.9 2.7 -1.8 1.4 -2.5 2.8 -2.9 6.1 -0.1 0.3 -1.9 1.1 -4.1 1.8 -4.3 1.3 -4.9 2.4 -2.5 4.7 0.9 1 1.2 2.5 0.8 4.4 -0.5 2.9 -0.5 3 3.5 3 3.3 0 4 0.3 3.5 1.6 -0.3 0.8 -1.2 1.3 -2 1 -1 -0.4 -1.3 -0.1 -0.8 1.2 0.3 1.2 -0.4 2.9 -1.9 4.5 -2.9 3.1 -3.6 3.3 -3.6 1.2 0 -1.3 -0.7 -1.5 -3.7 -0.9 -2.1 0.4 -4.6 0.8 -5.5 0.8 -1 0 -1.8 0.5 -1.8 1.1 0 0.5 -0.5 0.3 -1 -0.5 -0.8 -1.2 -1.2 -0.9 -2.2 1.8 -0.8 1.9 -1.9 3.2 -3 3.2 -1.6 0 -1.7 -0.3 -0.6 -2.1z"/><path d="M231 276.5 c0 -0.8 -0.3 -1.5 -0.7 -1.6 -3 -0.3 -4.7 -0.9 -5.4 -2.1 -0.5 -0.7 -1.6 -1.3 -2.6 -1.3 -1.3 0 -1.7 -0.7 -1.6 -2.2 0.2 -1.3 -0.2 -2.3 -0.7 -2.3 -0.6 0 -1 0.5 -1 1 0 1.8 -2.5 1 -4 -1.2 -0.8 -1.3 -1.3 -2.6 -1.2 -3 0.1 -0.5 -0.9 -0.8 -2.3 -0.8 -1.4 0 -2.5 0.6 -2.6 1.3 0 0.6 -0.4 0.2 -0.9 -1 -0.5 -1.3 -1.6 -2.3 -2.4 -2.3 -0.7 0 -1.6 -0.7 -2 -1.5 -0.4 -1 -1.4 -1.3 -3.6 -0.9 -2 0.4 -3 0.3 -3 -0.5 0 -0.7 -0.5 -0.9 -1 -0.6 -0.6 0.3 -1.3 0 -1.6 -0.8 -0.5 -1.4 -4 -2.5 -10.1 -3.3 -4.7 -0.6 -6.3 -1.5 -6.3 -3.7 0 -4.3 -1.2 -6.7 -3.3 -6.7 -1.9 0 -1.9 -0.1 -0.4 -1.8 1 -1 1.7 -3.1 1.7 -4.5 0 -1.7 0.5 -2.7 1.4 -2.7 0.8 0 1.7 -1.3 2.1 -2.9 0.7 -3.2 3.2 -4.1 11.4 -4.1 4.3 0 24.6 6.1 31.6 9.5 1.7 0.7 5.1 2.2 7.8 3.1 5.5 2 7.5 3.5 11.1 8.8 3.2 4.8 3.3 7 0.1 10.4 -1.4 1.5 -2.5 3.1 -2.5 3.5 0 0.5 -0.7 1.5 -1.5 2.4 -2.3 2.3 -1.1 2.7 2.6 0.9 3 -1.5 3.3 -1.5 4.5 0.2 1.7 2.2 1.7 3.3 -0.2 6 -1.8 2.6 -5.4 3 -5.4 0.6 0 -1.1 -0.5 -1.4 -1.6 -1 -0.9 0.3 -1.8 0.6 -2 0.6 -1.3 0 -0.1 1.9 1.4 2.2 1.3 0.3 0.8 0.8 -1.7 2.1 -4.1 2.1 -4.1 2.1 -4.1 0.2z"/><path d="M307.2 260.1 c0 -6.2 -0.5 -7.1 -4.7 -7.1 -2.8 0 -3.2 0.3 -2.8 2 0.4 1.4 0 2 -1.1 2 -4.6 0 -7.3 -8.2 -4.1 -12.4 0.8 -1.1 1.5 -2.7 1.5 -3.7 0 -0.9 0.9 -2.8 2 -4.2 1.1 -1.4 2 -3.2 2 -4.1 0 -0.9 0.7 -1.9 1.6 -2.3 0.8 -0.3 1.3 -1.1 1 -1.8 -0.2 -0.7 1.6 -3.4 4 -6 2.4 -2.7 4.4 -5.4 4.4 -6 0 -1.8 5.2 -6.3 8.2 -7 1.4 -0.4 2.8 -1.5 3.1 -2.5 0.3 -1 1.8 -2.1 3.6 -2.5 1.8 -0.4 4.4 -1.3 5.9 -2.1 3.5 -1.8 3.7 -1.8 3.9 0.6 0.1 1.4 -0.4 2 -1.9 2 -1.3 0 -1.8 0.5 -1.5 1.4 0.4 0.9 -0.7 2.3 -2.8 3.7 -2.3 1.6 -3.1 2.7 -2.4 3.5 0.6 0.8 0.2 2.1 -1.4 4 -1.2 1.6 -3.1 4.6 -4.2 6.7 -1.1 2.2 -2.9 4.5 -3.9 5.3 -1.9 1.3 -1.9 1.4 -0.1 3.4 1 1.1 2.4 1.9 3 1.6 0.7 -0.2 1.8 0 2.5 0.4 1.2 0.7 1.2 1.1 0 2.5 -0.7 0.9 -2 1.3 -2.8 1 -1 -0.3 -1.2 0 -0.8 1 0.4 1.1 -0.3 1.9 -1.9 2.5 -2.5 0.9 -3.5 3 -1.5 3 2.2 0 0.8 4 -2 5.6 -2.2 1.4 -2.7 2.1 -1.8 3.1 1 1.2 0.4 1.7 -1.4 1.4 -1.1 -0.2 -1 1.7 0.3 4 1.3 2.6 0.2 5.9 -2.1 5.9 -1.5 0 -1.8 -0.8 -1.8 -4.9z"/></g><g fill="#839492"><path d="M176 339.5 c-0.7 -0.9 -1.5 -1.3 -1.8 -1.1 -1.3 1.4 -10.5 -5.3 -14.2 -10.4 -2.3 -3.3 -2.5 -4.3 -2.5 -15.5 0 -8.3 0.5 -13.1 1.5 -15.5 3.8 -8.8 18.7 -18.8 29.1 -19.6 9.1 -0.6 17.4 4.5 22.9 14.2 1.7 2.9 3.8 5.4 4.6 5.4 0.8 0 1.4 0.5 1.4 1 0 0.6 -0.5 1 -1.1 1 -0.9 0 -1 2.3 -0.6 7.8 0.6 7.7 -0.9 15.7 -2.8 15.7 -0.6 0 -1.6 0.4 -2.2 0.8 -1.6 1 -1.7 -0.5 -0.2 -2 0.7 -0.7 1.1 -4.5 1.1 -9.3 0 -7.2 -0.3 -8.5 -2.7 -11.6 -4.3 -5.6 -7 -8 -11.8 -10.3 l-4.6 -2.2 -8.7 2.7 c-10.5 3.3 -16.4 7.5 -17.9 12.6 -0.5 2 -1.3 3.9 -1.6 4.3 -0.4 0.3 0 2.1 0.9 3.8 0.9 1.8 1.8 5.2 1.9 7.6 0.3 4.5 2.5 8.1 4.8 8.1 1.9 0 7 2.8 9 5 1.4 1.6 2 1.7 2.6 0.8 0.5 -0.7 1.9 -1.4 3.1 -1.5 7.8 -0.8 12.4 -0.9 13.5 -0.1 0.7 0.5 1.4 0.5 1.8 -0.2 0.3 -0.6 1.1 -0.8 1.6 -0.5 0.5 0.4 0.9 0.1 0.9 -0.4 0 -0.6 0.5 -1.1 1 -1.1 2 0 0.9 3.3 -1.7 5.4 -3.4 2.6 -16.4 6.5 -21.9 6.6 -2.5 0 -4.6 -0.6 -5.4 -1.5z"/><path d="M344.2 294.9 c-6.7 -2.6 -12 -7.8 -15.8 -15.4 -2.6 -5.4 -2.9 -7 -2.9 -15.5 0 -8.6 0.3 -10.1 3 -15.4 3 -5.9 5.3 -7.9 14.6 -12.8 2.3 -1.1 5.3 -2.1 6.7 -2.2 3.9 0 11.5 1.3 12.1 2.1 0.3 0.5 3.2 2.1 6.4 3.7 7.6 3.8 10.6 8.7 12.4 20.5 1.2 8 1.1 9 -0.8 14.9 -2.7 8.3 -10.2 17.3 -16.1 19.5 -7.4 2.7 -13.7 2.9 -19.6 0.6z m19.1 -9.8 c2 -1.3 3.7 -2.8 3.7 -3.5 0 -0.7 1.6 -2.8 3.6 -4.7 2 -1.8 4.4 -5 5.4 -6.9 1.6 -3.1 1.6 -4.2 0.5 -10.5 -0.7 -3.8 -1.8 -8.1 -2.4 -9.5 -1.2 -2.5 -8 -8 -9.9 -8 -0.6 0 -1.2 -0.5 -1.4 -1.2 -0.3 -0.7 -2.8 -1.3 -6.2 -1.4 -5.2 -0.2 -5.8 0 -6.8 2.2 -0.6 1.3 -1.7 2.4 -2.4 2.4 -4.7 0 -16.4 10.1 -16.4 14.1 0 1 -0.4 1.9 -1 2.1 -1.8 0.6 -1.6 9.1 0.4 13.2 6.2 13.2 21.4 18.6 32.9 11.7z"/></g><g fill="#fa8351"><path d="M145 236.1 c0 -1.1 0.5 -2.3 1.1 -2.7 0.7 -0.4 0.9 -2.1 0.6 -4.3 -0.4 -2.3 -0.1 -4.3 0.8 -5.5 1 -1.4 1.2 -2.2 0.4 -2.6 -0.6 -0.4 0.5 -1.6 2.5 -2.8 3.7 -2.2 4.5 -4.2 2.4 -6 -5.7 -4.6 -22.9 -11.2 -29.3 -11.2 -1.9 0 -3.7 -0.4 -4 -1 -0.3 -0.5 0.1 -1 0.9 -1 0.9 0 1.6 -0.7 1.6 -1.5 0 -0.8 0.5 -1.5 1 -1.5 1.9 0 1 -1.7 -1.6 -2.9 -1.5 -0.7 -2.4 -1.7 -2.1 -2.5 0.3 -0.8 -0.5 -1.9 -1.9 -2.6 -3.1 -1.7 -3 -2.8 0.1 -3.6 1.4 -0.4 2.4 -1.1 2.2 -1.8 -0.2 -0.6 0 -1.9 0.4 -2.8 1.5 -2.9 -0.6 -6.5 -4.8 -7.8 -2.1 -0.7 -4.6 -1.9 -5.5 -2.7 -1.1 -1 -2.6 -1.3 -4.3 -0.9 -2 0.5 -2.5 0.3 -2.5 -1.2 0 -1.5 -0.8 -1.7 -5.2 -1.6 -2.9 0.1 -8.1 0.5 -11.5 0.9 -4 0.4 -6.3 0.3 -6.3 -0.3 0 -1.8 3.3 -2.4 15.8 -3.1 9.1 -0.5 12.6 -1.1 13.3 -2.1 0.6 -1 1.2 -1.1 1.7 -0.5 1.1 1.5 9.1 4 25.5 8 18 4.4 26.9 7.5 36.4 12.6 8.2 4.5 10.3 4.5 15.2 0 1.8 -1.7 3.9 -3.1 4.6 -3.1 0.8 0 2.2 -1.3 3.2 -3 0.9 -1.7 3.7 -3.9 6.3 -5.1 2.5 -1.2 4.7 -2.4 5 -2.8 1.3 -1.8 10.3 -7.1 12.1 -7.1 1 0 1.9 -0.4 1.9 -1 0 -0.5 0.7 -1 1.5 -1 1 0 1.5 1 1.5 3 0 1.7 -0.5 3 -1.1 3 -0.5 0 -0.9 0.8 -0.8 1.8 0.5 3.4 -1.3 10.2 -2.9 11.2 -1.6 0.8 -1.6 1.1 0.1 4.1 1.9 3.3 1.2 4.8 -2.2 4.9 -1.9 0 -13.7 9.6 -16.3 13.3 -5.3 7.4 -21.8 22.4 -28.3 25.7 -2.8 1.4 -5.8 3.2 -6.8 4.1 -1 1 -3.8 2 -6.3 2.4 -3.6 0.5 -4.5 1.1 -5 3.1 -0.8 3.1 -2 3.1 -2.8 -0.1 -0.4 -1.4 -1.1 -2.5 -1.7 -2.5 -0.6 0 -0.8 0.4 -0.4 1 0.6 1 -2.4 5 -3.7 5 -0.5 0 -0.8 -0.9 -0.8 -1.9z"/></g><g fill="#ad9492"><path d="M88.9 226.6 c-0.2 -0.3 -3.1 -0.6 -6.4 -0.7 -3.7 -0.2 -7.7 -1.1 -10.5 -2.5 -2.5 -1.2 -6.5 -2.7 -9 -3.5 -2.5 -0.7 -5.3 -2 -6.2 -3 -0.9 -0.9 -2.3 -1.9 -3 -2.1 -2.9 -1 1.4 -3.7 7 -4.4 6.1 -0.7 10.5 -2.3 6.5 -2.4 -3.7 0 -3.3 -1.5 1.3 -4.4 2.4 -1.5 4.1 -3.3 3.8 -3.8 -0.4 -0.6 0.4 -1.9 1.7 -3 l2.4 -2 -5.5 0.8 c-6.4 0.8 -7.6 0.9 -15 0.5 l-5.5 -0.2 3.7 -2.2 c4.2 -2.4 5.1 -4.3 1.6 -3.3 -2.9 0.9 -3.4 1 -8.3 0.7 l-4 -0.1 5.5 -5.3 c8.4 -7.9 12.9 -11.5 15 -12.2 1.1 -0.4 1.7 -1.2 1.4 -2 -0.4 -0.9 0.4 -1.7 2.3 -2.1 l2.8 -0.8 -2.5 -0.6 c-2.1 -0.6 -1.7 -0.8 2.8 -1.8 2.9 -0.7 6.2 -1.2 7.2 -1.2 2.2 0 2.7 1.6 0.8 2.2 -0.7 0.3 -0.8 1 -0.4 1.7 0.6 0.9 2 1.1 4.5 0.7 l3.6 -0.7 -2.7 1.8 c-1.6 1 -2.8 2.2 -2.8 2.6 0 0.5 -1.1 2.2 -2.5 3.9 -3.9 4.6 -3.2 13.3 1.1 14.4 1.9 0.5 2.3 1.1 1.8 2.8 -0.3 1.5 0.4 3.4 2.5 6 3.7 4.7 3.9 7.3 0.7 10.8 -2.3 2.4 -2.4 2.7 -0.8 4 2.9 2.5 6.6 4.5 9.5 5.2 2.8 0.7 3.5 2 1.7 3.1 -0.8 0.5 -0.7 1.1 0.1 2.1 0.9 1.2 0.6 1.4 -2.3 1.4 -1.9 0 -3.7 -0.2 -3.9 -0.4z"/><path d="M443.7 208.3 c-0.4 -0.6 -2.8 -1.3 -5.5 -1.6 -6.3 -0.7 -9.9 -2.5 -10.6 -5 -0.7 -2.9 -0.3 -3 3.6 -1.4 3.9 1.7 8.8 1.2 8.8 -0.9 0 -0.7 0.6 -1.7 1.3 -2.1 0.6 -0.4 1.2 -1.9 1.2 -3.3 0 -2.1 0.6 -2.6 4.3 -3.4 3 -0.7 4.4 -1.6 4.8 -3.1 0.6 -2.3 6.5 -6.7 8.5 -6.3 0.8 0.2 1.3 -0.4 1.3 -1.4 -0.2 -2.8 3.8 -3.5 5.4 -0.9 1.7 2.4 3.7 2.8 2.8 0.5 -1 -2.6 0.4 -3.7 2.5 -1.8 1.1 1 1.9 1.2 1.9 0.6 0 -0.7 0.7 -1.2 1.5 -1.2 2.4 0 5.3 -3.2 4.9 -5.4 -0.3 -2.3 0.6 -4.2 1.5 -3 0.6 0.8 7.6 4.4 8.6 4.4 1 0 0.4 -3.4 -0.8 -4.9 -0.7 -0.9 -2.5 -3.5 -4 -5.9 l-2.7 -4.2 2.7 -1.1 c2 -0.7 3.3 -0.7 4.5 0 2.4 1.5 3.3 1.4 1.9 -0.3 -0.9 -1.1 -0.6 -1.5 1.6 -1.9 3.1 -0.6 8.6 2.1 7.6 3.6 -0.3 0.6 -0.1 0.7 0.5 0.3 0.6 -0.3 1.8 0.1 2.6 1 0.9 0.8 1.6 1.3 1.6 0.9 0 -0.3 1.6 0.9 3.5 2.6 1.9 1.8 3.3 3.4 3.1 3.6 -0.2 0.3 -2.5 -0.3 -5 -1.1 -5.2 -1.8 -10 -2.1 -9.1 -0.7 0.3 0.5 -0.4 1.6 -1.5 2.4 -1.8 1.2 -2 2.1 -1.5 5.3 0.4 2.2 1.5 4.5 2.4 5.2 1.4 1.2 1.1 1.8 -3.1 5.8 -2.6 2.4 -5.7 4.4 -6.8 4.4 -1.2 0 -3.5 1.1 -5.2 2.5 -1.6 1.4 -3.8 2.5 -4.9 2.5 -1.1 0 -2.4 1.1 -3.1 2.5 -0.6 1.4 -1.9 2.5 -2.8 2.5 -2.5 0 -7 3.8 -6.4 5.5 0.3 0.7 -0.5 2 -1.8 2.9 -2.8 1.8 -19.2 3.3 -20.1 1.9z"/><path d="M236.1 172.4 c-3.3 -3.5 -3.1 -4.1 4.7 -11.8 1.7 -1.8 3.2 -3.7 3.2 -4.3 0 -0.5 0.9 -1.8 2 -2.8 1.2 -1.1 2 -3.1 2 -5 0 -1.7 0.3 -3.5 0.7 -3.9 0.4 -0.4 0.8 -1.5 0.8 -2.4 0 -1 1.4 -2 3.6 -2.7 1.9 -0.5 4.8 -1.8 6.3 -2.8 3.1 -2.1 11.6 -3.7 19.1 -3.7 l5 0.1 -2.7 1.7 c-1.6 0.9 -2.8 2.2 -2.8 2.9 0 0.7 -0.5 1.3 -1.2 1.3 -0.6 0 -2 0.7 -3 1.7 -1 0.9 -2.8 2.1 -4 2.7 -1.2 0.6 -2.3 1.6 -2.5 2.2 -0.5 1.5 4.1 3.4 8.2 3.4 1.9 0 3.6 0.4 4 0.9 0.3 0.5 2 1.3 3.8 1.7 2.9 0.6 7.8 4.5 7.7 6.2 -0.1 1.2 -9.7 5.5 -10.8 4.8 -0.6 -0.3 -1.3 -0.2 -1.7 0.3 -0.3 0.6 -1.2 0.8 -2.1 0.4 -0.8 -0.3 -2.5 0.3 -3.7 1.4 -2.2 2 -7.2 4.8 -14 7.8 -2.3 1 -7 1.7 -12.1 1.9 -7.5 0.2 -8.6 0 -10.5 -2z"/></g><g fill="#c88884"><path d="M131.8 121 c4 -3.9 7.7 -6.8 8.2 -6.5 0.5 0.3 1.1 0.1 1.5 -0.4 0.3 -0.6 4.5 -3.6 9.3 -6.8 4.8 -3.2 8.9 -6 9.2 -6.3 1.9 -1.9 16 -8.1 17.1 -7.5 0.7 0.5 1 0.4 0.6 -0.2 -0.8 -1.3 3.9 -2.7 5.5 -1.7 0.7 0.5 0.8 0.2 0.3 -0.6 -0.6 -1 0.1 -1.2 3.6 -0.7 2.7 0.4 3.6 0.3 2.4 -0.2 -1.4 -0.6 0.4 -1 6.2 -1.6 8.7 -0.7 29.2 1.3 24.3 2.5 -1.4 0.3 -2.5 1.1 -2.5 1.7 0 0.6 -0.3 1.5 -0.7 1.9 -0.5 0.4 -0.8 0.3 -0.8 -0.3 0 -0.6 -2.6 -1.3 -5.7 -1.6 -5 -0.5 -6 -0.4 -7.3 1.4 -1 1.2 -3.4 2.3 -6.5 2.8 -2.8 0.4 -6.7 1.7 -8.8 2.8 -2.1 1.2 -4.6 1.9 -5.5 1.6 -4.9 -1.2 -20.5 4.5 -29.3 10.8 -1.5 1 -3.1 1.9 -3.7 1.9 -0.5 0 -2.7 1.6 -4.8 3.5 -2.1 1.9 -4.6 4.1 -5.4 4.9 -3.3 2.9 -7 4.7 -9.2 4.5 -1.3 -0.2 -3 0 -3.8 0.5 -0.8 0.4 1.8 -2.4 5.8 -6.4z m73.5 -31.7 c-1.8 -0.2 -4.8 -0.2 -6.5 0 -1.8 0.2 -0.4 0.4 3.2 0.4 3.6 0 5 -0.2 3.3 -0.4z"/></g><g fill="#ef8a74"><path d="M422.6 201.8 c-2.6 -1 -5.6 -2 -6.5 -2.1 -3.6 -0.6 -5.1 -2.4 -6 -7.2 -0.6 -3.1 -0.6 -5.4 0 -5.9 0.5 -0.6 0.9 -2.2 0.9 -3.7 0 -2.6 2.2 -5.1 7.6 -8.6 1.6 -1.1 0.8 -1.2 -4.6 -0.7 -3.6 0.4 -7 1.1 -7.6 1.5 -0.6 0.5 -3.5 1.8 -6.5 2.8 -3 1 -8.3 2.9 -11.8 4.1 l-6.4 2.3 -2 -2.4 -1.9 -2.4 3.2 -1.3 c1.8 -0.7 5.4 -1.7 8.2 -2.2 7.1 -1.4 27.4 -11.5 29.1 -14.6 0.4 -0.7 1.6 -1.4 2.5 -1.4 1 0 2.2 -0.4 2.7 -0.8 0.6 -0.4 2.8 -1.4 5 -2.1 2.2 -0.7 5.4 -1.9 7.1 -2.6 1.6 -0.8 4.7 -1.5 6.7 -1.7 2 -0.1 3.7 -0.5 3.7 -0.9 0 -0.4 0.9 -0.5 2 -0.2 1.1 0.3 2 0.1 2 -0.4 0 -0.5 1.6 -0.7 3.5 -0.5 1.9 0.2 3.5 0 3.5 -0.4 0 -0.5 5.4 -0.9 11.9 -0.9 6.6 0 11.5 0.3 10.9 0.6 -0.5 0.3 1.8 0.9 5.1 1.3 3.3 0.4 6.3 1.1 6.6 1.6 0.3 0.5 1.2 0.7 2 0.3 0.8 -0.3 1.5 0 1.5 0.6 0 0.6 -1 1.1 -2.1 1.1 -1.8 0 -1.9 0.2 -0.9 1.5 1.4 1.7 0 2.1 -1.7 0.4 -0.9 -0.9 -2 -0.9 -4.4 0 -1.7 0.6 -4.9 1.1 -7 1.1 -2.1 0 -4.1 0.4 -4.4 1 -0.3 0.6 -2 1 -3.6 1 -1.6 0 -4.6 0.7 -6.6 1.5 -1.9 0.8 -4.4 1.5 -5.4 1.5 -1.1 0 -1.9 0.4 -1.9 0.8 0 1.4 -6.4 4 -11.6 4.8 -5.8 0.8 -16.3 5.4 -18.4 7.9 -2.7 3.2 -8 13.8 -8 16 0 0.6 1.7 1.9 3.8 2.7 3.1 1.2 4 2.2 4.6 4.8 0.3 1.8 0.5 3.4 0.4 3.5 -0.2 0.1 -2.5 -0.7 -5.2 -1.7z"/><path d="M183 184.2 c0 -0.9 19 -19.6 25.3 -25 2 -1.7 3.7 -3.3 3.7 -3.5 0 -0.2 -2.5 -0.7 -5.6 -1 -5.8 -0.6 -8.4 -2 -8.4 -4.4 0 -1.2 0.7 -1.4 2.8 -1 1.6 0.3 3.2 0.7 3.8 0.8 0.5 0.1 4.1 0.1 7.9 0 6.3 -0.1 7.1 -0.3 8 -2.3 0.8 -1.8 2.1 -2.4 5.5 -2.9 2.5 -0.3 6.8 -1.6 9.5 -3 2.8 -1.4 7.9 -3.4 11.5 -4.3 3.6 -1 8.2 -2.5 10.3 -3.2 2 -0.8 4.3 -1.4 4.9 -1.4 2.4 0 -5.1 5.4 -8.9 6.5 -2.4 0.7 -3.8 1.7 -3.8 2.7 0 0.9 -0.4 2 -0.8 2.4 -0.4 0.4 -0.7 2.2 -0.7 3.9 0 1.9 -0.8 3.9 -2 5 -1.1 1 -2 2.3 -2 2.8 0 0.6 -1.5 2.5 -3.2 4.3 -7.7 7.6 -8.2 8.8 -4.8 11.7 3.2 2.7 3.7 2.2 -9 9.9 -2.5 1.5 -4.8 2.8 -5.1 2.8 -0.3 0 -1.4 -1.6 -2.5 -3.6 -1.8 -3.3 -1.8 -3.6 -0.2 -4.5 1.6 -0.9 3.4 -7.7 2.9 -11.1 -0.1 -1 0.3 -1.8 0.8 -1.8 0.6 0 1.1 -1.3 1.1 -3 0 -2 -0.5 -3 -1.5 -3 -0.8 0 -1.5 0.5 -1.5 1 0 0.6 -0.9 1 -1.9 1 -1.8 0 -10.8 5.3 -12.1 7.1 -0.3 0.4 -2.5 1.6 -5 2.8 -2.6 1.2 -5.4 3.4 -6.3 5.1 -1 1.7 -2.4 3 -3.1 3 -0.8 0 -3.1 1.6 -5.2 3.5 -4 3.7 -4.4 3.9 -4.4 2.7z"/></g><g fill="#a2adab"><path d="M290.9 157.8 c-1.8 -3.5 -4.3 -5.5 -7.7 -6.3 -1.8 -0.3 -3.4 -1.1 -3.7 -1.6 -0.4 -0.5 -2.1 -0.9 -4 -0.9 -4.1 0 -8.7 -1.9 -8.2 -3.4 0.2 -0.6 1.3 -1.6 2.5 -2.2 1.2 -0.6 3 -1.8 4 -2.7 1 -1 2.4 -1.7 3 -1.7 0.7 0 1.2 -0.6 1.2 -1.2 0 -0.7 1.6 -2.3 3.5 -3.6 2.9 -1.8 4.8 -2.2 11.7 -2.1 7.6 0 19.4 2.3 22.6 4.2 1.1 0.7 1.7 -0.3 1.3 -2.5 0 -0.5 1 -0.8 2.4 -0.8 1.4 0 2.5 0.5 2.5 1 0 0.6 0.6 1 1.4 1 0.7 0 1.9 0.7 2.6 1.5 1.8 2.1 3.3 1.9 2.5 -0.4 -0.3 -1.1 -0.1 -2.2 0.5 -2.6 1.7 -1.1 11 1.5 11.8 3.4 0.5 0.9 0.9 4.4 1 7.8 0.2 5.2 -0.1 6.4 -1.7 7.3 -3.1 1.6 -5.9 1.2 -6.6 -0.9 -0.5 -1.7 -1.5 -2 -6.6 -2 -3.4 0 -6.3 -0.2 -6.6 -0.5 -0.3 -0.3 -2.2 0.3 -4.2 1.4 -3 1.6 -22.9 10 -23.8 10 -0.1 0 -0.8 -1 -1.4 -2.2z"/></g><g fill="#f8a189"><path d="M98.3 224.3 c-2.2 -0.3 -3 -0.8 -2.7 -1.8 0.4 -0.9 -0.4 -1.7 -2.3 -2.1 -2.9 -0.7 -6.5 -2.7 -9.5 -5.2 -1.6 -1.3 -1.5 -1.6 0.8 -4 3.2 -3.5 3 -6.1 -0.7 -10.8 -2.1 -2.6 -2.8 -4.5 -2.5 -6 0.5 -1.7 0.1 -2.3 -1.8 -2.8 -4.3 -1.1 -5 -9.8 -1.1 -14.4 1.4 -1.7 2.5 -3.4 2.5 -3.9 0 -0.4 1.2 -1.6 2.8 -2.5 l2.7 -1.7 -3.9 0.2 c-2.2 0.1 -4.1 -0.3 -4.3 -0.9 -0.4 -1.2 9.8 -2.6 20 -2.8 3.9 -0.1 4.7 0.2 4.7 1.7 0 1.4 0.5 1.6 2.5 1.1 1.7 -0.4 3.2 -0.1 4.3 0.9 0.9 0.8 3.4 2 5.5 2.7 4.2 1.3 6.3 4.9 4.8 7.8 -0.4 0.9 -0.6 2.2 -0.4 2.8 0.2 0.7 -0.8 1.4 -2.2 1.8 -3.1 0.8 -3.2 1.9 -0.1 3.6 1.4 0.7 2.2 1.8 1.9 2.6 -0.3 0.8 0.6 1.8 2.1 2.5 2.6 1.2 3.5 2.9 1.6 2.9 -0.5 0 -1 0.7 -1 1.5 0 0.8 -0.7 1.5 -1.6 1.5 -0.8 0 -1.2 0.5 -0.9 1 0.3 0.6 2.1 1 4 1 7.5 0 27.4 8.3 30 12.5 0.8 1.3 0.5 2 -1.5 3.5 -1.4 1 -3.2 2.5 -4.1 3.3 -2 1.8 -16.7 2.8 -19 1.4 -1.9 -1.2 -7.9 0.8 -7.9 2.7 0 0.6 -0.4 0.5 -0.9 -0.3 -0.8 -1.3 -2.1 -1.3 -8.8 -0.3 -4.3 0.7 -8.2 1.1 -8.8 1 -0.5 0 -2.4 -0.3 -4.2 -0.5z"/><path d="M203.2 149.8 c-0.9 -0.4 -3.4 -0.7 -5.5 -0.7 -4.7 -0.1 -12.7 -3.6 -12.7 -5.6 0 -1 -1 -1.5 -2.7 -1.5 -1.6 0 -3.4 -0.4 -4.2 -0.9 -1.1 -0.7 -1 -1.1 0.4 -1.9 1.6 -0.8 1.4 -1.2 -1.8 -2.7 -4.2 -2 -4.6 -2.7 -1.4 -2.4 5.3 0.5 9.4 -0.3 12.7 -2.2 3.2 -2 3.3 -2.3 1.5 -2.9 -6.5 -2.4 -10.3 -3.2 -14.7 -3.3 -4.7 -0.1 -4.9 -0.2 -5.9 -3.8 -1.9 -6.1 -0.7 -8.2 6.3 -11.7 4.3 -2.1 6.7 -4 7.5 -5.9 1.5 -3.2 8.5 -6.9 14.8 -7.7 2.3 -0.3 4.6 -1.4 5.5 -2.5 1.3 -1.8 2.3 -1.9 7.3 -1.4 3.1 0.3 5.7 1 5.7 1.6 0 0.6 0.3 0.7 0.8 0.3 0.4 -0.4 0.7 -1.3 0.7 -1.9 0 -0.7 1.6 -1.2 3.7 -1.3 2.1 -0.1 3.5 0.3 3.2 0.7 -0.3 0.5 0.2 0.6 1.1 0.3 2 -0.8 12.7 2.5 11.9 3.7 -0.3 0.5 0.2 0.6 1.1 0.3 2 -0.8 6.7 0.4 6 1.5 -0.3 0.5 0.5 0.7 1.7 0.3 1.3 -0.3 1.9 -0.1 1.5 0.5 -0.4 0.6 -0.1 1.1 0.6 1 3.4 -0.1 4.8 0.4 4.1 1.5 -0.4 0.7 -0.3 0.8 0.5 0.4 1.6 -1 18.7 7.8 24.2 12.5 1.9 1.6 6.8 4.6 10.9 6.7 4.1 2 8.2 4.4 9 5.3 0.8 0.8 3.1 2 5 2.5 2.7 0.8 0.1 1 -11.3 1 -8.2 0 -14.5 -0.2 -14 -0.3 0.4 -0.2 4 -0.7 7.8 -1.1 6.1 -0.8 6.6 -1 4 -1.7 -1.6 -0.4 -3.2 -1.1 -3.5 -1.5 -0.3 -0.3 -2.1 -1.7 -4 -3 -1.9 -1.4 -4.4 -3.3 -5.5 -4.2 -1 -1 -3.6 -2.6 -5.7 -3.5 -2.1 -0.9 -3.8 -2 -3.8 -2.4 0 -1.3 -12.2 -6.9 -15.1 -6.9 -1.5 0 -4 -0.5 -5.5 -1 -3.2 -1.2 -40.4 -2.5 -43.5 -1.5 -1.5 0.5 -1.8 1 -1 1.8 1.4 1.4 -2.1 6.1 -7 9.4 -4 2.6 -5 4.3 -2.6 4.3 1.5 0 9.7 8.5 9.7 10.1 0 0.6 1.1 2.5 2.5 4.3 1.4 1.8 2.5 4 2.5 4.8 0 1.1 1.4 1.8 4.8 2.3 5.7 0.8 11.2 2.6 11.2 3.7 0 0.4 0.8 0.8 1.8 0.9 1.2 0 1.1 0.3 -0.6 1 -1.3 0.5 -2.6 1.8 -2.9 2.8 -0.4 1.7 -1.6 2 -8 2.3 -4.1 0.2 -8.2 0 -9.1 -0.4z"/></g><g fill="#f2b5a0"><path d="M431 200.3 c-1.9 -0.8 -3.8 -2.1 -4.3 -2.8 -0.4 -0.8 -2.3 -1.9 -4.2 -2.5 -1.9 -0.6 -3.5 -1.7 -3.5 -2.5 0 -2.1 5.3 -12.7 8 -16 2.1 -2.5 12.6 -7.1 18.4 -7.9 5.2 -0.8 11.6 -3.4 11.6 -4.8 0 -0.4 0.8 -0.8 1.9 -0.8 1 0 3.5 -0.7 5.4 -1.5 2 -0.8 5 -1.5 6.6 -1.5 1.6 0 3.3 -0.4 3.6 -1 0.3 -0.5 2.4 -1 4.5 -1 3.7 0 4.2 0.4 8 6.1 3.5 5.3 5 8.9 3.5 8.9 -1 0 -8 -3.6 -8.6 -4.4 -0.9 -1.2 -1.8 0.7 -1.5 3 0.4 2.2 -2.5 5.4 -4.9 5.4 -0.8 0 -1.5 0.5 -1.5 1.2 0 0.6 -0.8 0.4 -1.9 -0.6 -2.1 -1.9 -3.5 -0.8 -2.5 1.8 0.9 2.3 -1.1 1.9 -2.8 -0.5 -1.6 -2.6 -5.6 -1.9 -5.4 0.9 0 1 -0.5 1.6 -1.3 1.4 -2 -0.4 -7.9 4 -8.5 6.3 -0.4 1.5 -1.8 2.4 -4.8 3.1 -3.7 0.8 -4.3 1.3 -4.3 3.4 0 1.4 -0.6 2.9 -1.2 3.3 -0.7 0.4 -1.3 1.5 -1.3 2.2 0 0.8 -0.6 1.5 -1.4 1.5 -0.8 0 -2 0.2 -2.8 0.4 -0.7 0.2 -2.9 -0.2 -4.8 -1.1z"/><path d="M223.8 144.3 c-1 -0.2 -1.8 -0.8 -1.8 -1.2 0 -1 -5.7 -2.9 -11.2 -3.6 -3.4 -0.5 -4.8 -1.2 -4.8 -2.3 0 -0.8 -1.1 -3 -2.5 -4.8 -1.4 -1.8 -2.5 -3.7 -2.5 -4.3 0 -1.6 -8.2 -10.1 -9.7 -10.1 -2.4 0 -1.4 -1.7 2.6 -4.3 4.9 -3.3 8.4 -8 7 -9.4 -0.8 -0.8 -0.5 -1.3 1 -1.8 3.1 -1 40.3 0.3 43.5 1.5 1.5 0.5 4 1 5.5 1 2.9 0 15.1 5.6 15.1 6.9 0 0.4 1.7 1.5 3.8 2.4 2.1 0.9 4.7 2.5 5.7 3.5 1.1 0.9 3.6 2.8 5.5 4.2 1.9 1.3 3.7 2.7 4 3 0.3 0.4 1.9 1.1 3.5 1.5 2.6 0.7 2.2 0.9 -3.9 1.7 -3.8 0.4 -8.8 1.5 -11 2.2 -2.3 0.8 -5.9 1.7 -8.1 2.1 -2.2 0.4 -6 1.3 -8.5 2.1 -2.5 0.7 -7.5 2.3 -11.2 3.3 -3.6 1.1 -8.9 3.1 -11.7 4.5 -4.9 2.5 -6.7 2.9 -10.3 1.9z"/></g><g fill="#bdc8c3"><path d="M180.5 332 c-2 -2.2 -7.1 -5 -9 -5 -2.3 0 -4.5 -3.6 -4.8 -8.1 -0.1 -2.4 -1 -5.8 -1.9 -7.6 -0.9 -1.7 -1.3 -3.5 -0.9 -3.8 0.3 -0.4 1.1 -2.3 1.6 -4.3 1.5 -5.1 7.4 -9.3 17.9 -12.6 l8.7 -2.7 4.6 2.2 c4.8 2.3 7.5 4.7 11.8 10.3 2.4 3.1 2.7 4.4 2.7 11.6 0 4.8 -0.4 8.6 -1.1 9.3 -1.7 1.7 -1.3 3.1 0.4 1.7 2.1 -1.7 1.9 -1 -1.2 4.6 -1.9 3.4 -2.9 4.4 -3.1 3.2 -0.4 -1.9 -2.2 -2.5 -2.2 -0.7 0 0.5 -0.4 0.8 -0.9 0.4 -0.5 -0.3 -1.3 -0.1 -1.6 0.5 -0.4 0.7 -1.1 0.7 -1.8 0.2 -1.1 -0.8 -5.7 -0.7 -13.5 0.1 -1.2 0.1 -2.6 0.8 -3.1 1.5 -0.6 0.9 -1.2 0.8 -2.6 -0.8z"/><path d="M347.4 287.4 c-8.6 -2.5 -13.4 -6.5 -17 -14 -2 -4.1 -2.2 -12.6 -0.4 -13.2 0.6 -0.2 1 -1.1 1 -2.1 0 -4 11.7 -14.1 16.4 -14.1 0.7 0 1.8 -1.1 2.4 -2.4 1 -2.2 1.6 -2.4 6.8 -2.2 3.4 0.1 5.9 0.7 6.2 1.4 0.2 0.7 0.8 1.2 1.4 1.2 1.9 0 8.7 5.5 9.9 8 0.6 1.4 1.7 5.7 2.4 9.5 1.1 6.3 1.1 7.4 -0.5 10.5 -1 1.9 -3.4 5.1 -5.4 6.9 -2 1.9 -3.6 4 -3.6 4.7 0 1.8 -6.9 5.6 -11.5 6.4 -2.2 0.3 -5.8 0.1 -8.1 -0.6z"/></g><g fill="#fad0c1"><path d="M375.9 174.2 l-2.6 -4.7 5.1 -2.4 c2.8 -1.2 6.2 -2.8 7.6 -3.3 1.4 -0.6 3.3 -1.4 4.2 -1.9 1 -0.5 3.1 -0.9 4.8 -0.9 1.6 0 3 -0.5 3 -1.1 0 -0.7 1.2 -1 2.9 -0.7 1.8 0.3 2.8 0 2.4 -0.5 -0.4 -0.6 0.3 -0.8 1.5 -0.5 1.4 0.4 2 0.2 1.6 -0.4 -0.4 -0.7 0.8 -0.9 3.4 -0.6 2.3 0.2 3.8 -0.1 3.5 -0.6 -0.4 -0.5 0.3 -0.7 1.5 -0.4 1.2 0.4 2 0.2 1.7 -0.2 -0.3 -0.5 1.6 -1.2 4.2 -1.5 2.7 -0.3 7.2 -1.1 10.2 -1.7 4 -0.7 5.6 -0.7 6.5 0.2 0.8 0.9 0.6 1.1 -1.2 0.5 -1.5 -0.4 -2.2 -0.3 -2 0.5 0.2 0.7 -2 1.9 -4.9 2.9 -2.8 0.9 -5.5 2 -5.9 2.4 -0.4 0.4 -1.5 0.7 -2.5 0.7 -1 0 -2.2 0.7 -2.6 1.4 -1.7 3.1 -22 13.2 -29 14.5 -2.6 0.5 -6.1 1.4 -7.6 2 -1.6 0.6 -2.9 1.1 -3 1.1 -0.1 0 -1.4 -2.2 -2.8 -4.8z m54.6 -19.2 c1.9 -0.5 0.6 -0.6 -3.5 -0.3 -3.6 0.3 -6.7 0.7 -6.9 0.9 -0.8 0.7 7.3 0.2 10.4 -0.6z"/></g><g fill="#fdfbfb"><path d="M27.2 255.4 c-0.7 -0.8 -1.2 -2 -0.9 -2.7 0.2 -0.7 0.9 -0.2 1.6 1.1 1.5 2.8 1.1 3.6 -0.7 1.6z"/><path d="M80 164 c1.4 -0.4 3.6 -0.8 5 -0.8 2.2 0 2.2 0.1 -0.5 0.8 -1.6 0.4 -3.9 0.8 -5 0.8 -1.6 0 -1.5 -0.2 0.5 -0.8z"/><path d="M438.3 151.3 c1.5 -0.2 3.9 -0.2 5.5 0 1.5 0.2 0.2 0.4 -2.8 0.4 -3 0 -4.3 -0.2 -2.7 -0.4z"/><path d="M484.5 150.5 c-2.2 -0.8 -3.1 -1.4 -2 -1.4 1.1 0 3.4 0.6 5 1.4 3.8 1.7 2.2 1.7 -3 0z"/><path d="M452.3 149.3 c0.9 -0.2 2.5 -0.2 3.5 0 0.9 0.3 0.1 0.5 -1.8 0.5 -1.9 0 -2.7 -0.2 -1.7 -0.5z"/><path d="M459.8 148.3 c1.2 -0.2 3 -0.2 4 0 0.9 0.3 -0.1 0.5 -2.3 0.4 -2.2 0 -3 -0.2 -1.7 -0.4z"/><path d="M469.3 148.3 c1.5 -0.2 3.9 -0.2 5.5 0 1.5 0.2 0.2 0.4 -2.8 0.4 -3 0 -4.3 -0.2 -2.7 -0.4z"/><path d="M264.5 106.4 c-2.2 -1.3 -3.5 -2.4 -3 -2.4 0.6 0 2.8 1.1 5 2.5 2.2 1.3 3.6 2.4 3 2.4 -0.5 -0.1 -2.8 -1.2 -5 -2.5z"/></g></svg>